<svg width="65" height="56" fill="none" xmlns="http://www.w3.org/2000/svg"><g clip-path="url(#clip0_1_1452)"><path fill-rule="evenodd" clip-rule="evenodd" d="M-129.842-75.88c-2.879 2.577-5.192 4.793-5.14 4.924.052.131 2.693 2.924 5.869 6.207l5.775 5.968 5.362-4.706c2.949-2.59 5.362-4.905 5.362-5.148 0-.592-10.82-11.774-11.477-11.861-.289-.039-2.826 1.998-5.751 4.617zm323.599-3.681c-2.196 1.07-4.474 3.15-5.206 4.754-.281.616-.51.75-1.006.587-1.604-.528-5.127-.513-6.76.028-2.258.75-4.645 3.14-5.398 5.404-1.847 5.55 1.678 11.259 7.439 12.047l1.43.196v5.09c0 3.511.107 5.091.345 5.091.189 0 1.135-.201 2.102-.448 5.04-1.286 11.059-1.672 17.646-1.133 3.472.284 3.336.331 6.463-2.238l1.48-1.216v-2.747c0-2.627.037-2.777.857-3.417 2.3-1.797 5.333-3.535 6.464-3.703 1.07-.16 1.331-.36 1.854-1.43.903-1.845.806-4.829-.224-6.856-.998-1.965-3.099-3.924-4.978-4.64-1.435-.548-5.014-.564-6.634-.03-.519.171-.821-.076-1.646-1.347-1.114-1.717-2.591-2.998-4.727-4.1-1.104-.568-2.031-.747-4.361-.838-2.846-.112-3.043-.076-5.14.946zM6.149-78.396c-.626.252-.7.497-.7 2.313v2.032l16.432.003c9.038 0 17.385.092 18.55.201 1.923.182 2.11.26 2.025.854l-.094.653-18.3.08c-10.066.045-18.302.14-18.302.214 0 .073.2 1.087.443 2.253 1.529 7.316 1.531 7.388.526 15.351-1.32 10.463-1.716 15.98-1.305 18.197.589 3.184-.643 2.947 15.337 2.947 13.028 0 14.755-.1 13.626-.797-.189-.117-.678-.93-1.087-1.808-.904-1.939-1.024-5.504-.26-7.744.637-1.864 2.64-4.126 4.073-4.598 1.295-.427 3.44-.211 4.78.48.899.465.928.456 1.126-.33.224-.895.105-2.163-.853-9.026l-.654-4.692.953-5.885c.524-3.238 1.04-6.775 1.145-7.862.335-3.438 2.002-3.16-18.818-3.137-9.92.01-18.255.145-18.643.3zm-131.116 2.949c-.457.34-.505.542-.23.99.709 1.156 2.248.77 1.854-.467-.265-.834-.92-1.046-1.624-.523zm-5.494 4.39c-.376.376-.244 1.266.246 1.673.625.517 1.469-.152 1.339-1.062-.092-.644-1.146-1.05-1.585-.61zm142.218.363c-2.262.08-2.57.16-2.57.667 0 .317.218.66.485.762.774.297 21.327-.189 21.524-.508.098-.158.057-.407-.09-.553-.27-.267-14.522-.537-19.35-.368zm21.416.521c0 .77 1.097 1.1 3.655 1.1 2.419 0 3.198-.28 3.198-1.151 0-.307-.823-.404-3.426-.404-2.802 0-3.427.082-3.427.455zm-182.088 11.06c-11.38 10.007-12.528 10.933-14.132 11.396-1.967.567-4.705 2.632-4.705 3.55 0 .819.788 1.225 2.375 1.225.752 0 .802.08.621.984-.271 1.353.471 2.127 2.037 2.127h1.197v1.352c0 1.707.682 2.381 2.406 2.381 1.388 0 1.672.334 1.418 1.664-.234 1.223.643 2.07 2.143 2.07 1.184 0 1.198.014 1.198 1.206 0 1.28.635 2.116 1.31 1.723 2.202-1.28 4.16-4.022 3.921-5.487-.05-.305-2.453-2.927-5.34-5.827s-5.188-5.455-5.114-5.677c.346-1.037 1.381-.22 6.17 4.867 2.82 2.995 5.235 5.45 5.366 5.454.13.004 1.672-1.293 3.426-2.882a1396.42 1396.42 0 019.829-8.753l6.641-5.864 1.189 1.16 1.19 1.16 1.161-1.748c.639-.96 1.426-1.888 1.75-2.061.323-.173.587-.428.587-.568 0-.326-13.701-14.345-14.02-14.345-.131 0-5.812 4.901-12.624 10.892zm23.883-10.479c-.477.575.299 1.626 1.002 1.357.743-.284.682-1.771-.072-1.771-.322 0-.74.186-.93.414zm5.265.037c-.566.682-.103 1.726.767 1.726.468 0 .81-.231.939-.637.218-.686-.303-1.54-.939-1.54-.215 0-.56.203-.767.451zm-5.508 4.997c-.207.537.395 1.396.979 1.396.596 0 1.125-.793.906-1.36-.245-.639-1.644-.665-1.885-.036zm-14.052.378c-.214.075-.389.301-.389.503s2.008 2.369 4.462 4.816c3.906 3.892 4.514 4.387 4.87 3.958.353-.424-.132-1.044-3.596-4.608-4.428-4.555-4.784-4.865-5.347-4.669zm168.036 2.44c-4.25.779-8.621 2.963-10.752 5.373-.402.454-1.145 1.714-1.652 2.8-1.147 2.458-1.3 5.301-.417 7.754.578 1.603.577 1.622-.061 2.321-.354.388-.808 1.023-1.008 1.41-.303.588-.276.739.162.907.648.248 1.121-.356 1.678-2.14.68-2.181 4.314-7.347 7.393-10.509 2.137-2.194 2.962-2.858 3.225-2.596.262.262-.226 1.016-1.907 2.949-2.872 3.302-7.284 9.898-6.885 10.295.466.467 4.59-.308 6.549-1.231 2.368-1.116 4.992-3.791 6.19-6.312 1.244-2.617 1.7-5.082 1.579-8.555-.114-3.283 0-3.215-4.094-2.465zm203.962 2.586c-.528.321-1.369 1.068-1.869 1.66-.5.591-1.358 1.4-1.907 1.795-1.105.797-1.078.947.486 2.74l.895 1.028 2.767-1.577c4.138-2.357 4.949-3.604 3.524-5.413-.793-1.006-2.461-1.106-3.896-.233zm-9.924 3.515c-.331.193-2.154 1.544-4.049 3.003-1.896 1.46-5.479 4.189-7.964 6.064-7.76 5.86-7.672 5.672-4.439 9.601 4.209 5.114 3.797 5.064 8.893 1.087a705.573 705.573 0 018.242-6.269l5.376-4.03-.196-1.044c-.135-.718-.022-1.366.364-2.082.663-1.228.618-1.322-2.197-4.636-1.831-2.156-2.643-2.497-4.03-1.694zM49.839-51.953c-2.171.835-3.847 2.316-4.7 4.154l-.725 1.563 1.648 1.725c.907.95 1.716 1.928 1.798 2.174.118.353.379.274 1.221-.368 1.365-1.04 2.541-1.497 4.496-1.748l1.558-.2.382-1.547c.514-2.081.064-3.68-1.466-5.208-1.344-1.342-1.942-1.42-4.212-.545zm.503 3.439c-1.166 2.276-1.226 2.853-.28 2.717.482-.07.953-.618 1.553-1.81 1.021-2.03 1.1-2.8.285-2.8-.405 0-.89.588-1.558 1.893zm-13.684 2.927c-3.455 2.903-2.54 10.607 1.5 12.623 3.21 1.604 4.16.903 3.075-2.265-.552-1.611-1.383-3.621-3.275-7.922-.088-.2.136-.524.5-.718.62-.331.75-.16 2.17 2.854 1.845 3.92 2.513 5.849 2.513 7.261 0 1.345.759 1.448 2.135.292 1.283-1.078 2.054-3.189 1.786-4.886-.495-3.139-2.457-5.631-5.601-7.117-2.357-1.113-3.586-1.145-4.803-.122zm152.642.48c-5.37.812-5.044.633-5.044 2.767 0 2.173.708 3.264 2.428 3.741 1.301.36 7.262.425 11.508.124l2.817-.2.136-1.878c.13-1.797.205-1.94 1.738-3.348 1.218-1.119 1.485-1.515 1.118-1.656-1.089-.417-10.959-.115-14.701.45zM52.498-42.265c-1.156.331-2.729 1.3-3.355 2.069-.235.288-.315.91-.204 1.598.099.62.017 1.733-.183 2.473-.345 1.278-.32 1.392.49 2.237 3.912 4.077 11.34.35 11.34-5.691 0-1.274-.935-2.295-2.518-2.748-1.322-.378-4.142-.347-5.57.062zm3.214 3.316c-2.42 1.442-3.228 2.172-3.015 2.725.29.755 1.12.48 3.45-1.143 1.479-1.03 2.258-1.781 2.258-2.174 0-.832-.481-.726-2.693.592zm145.833 3.594c-1.542.901-2.98 1.978-3.196 2.393-1.016 1.95 1.047 4.213 3.123 3.425.715-.271 5.213-4.483 5.213-4.88 0-.302-1.899-2.616-2.129-2.595-.114.01-1.469.756-3.011 1.657zM-160.276 6.211c-.502.501-.623 1.036-.623 2.761 0 1.393.144 2.259.411 2.48.276.229 3.927.37 11.07.428 9.199.074 10.699.022 10.954-.38.163-.258.298-1.413.301-2.567.008-3.52.602-3.345-11.366-3.345-9.708 0-10.149.026-10.747.623zM31.996 7.939c-.55.385-.692.788-.692 1.96 0 .812.168 1.644.374 1.849.22.22 1.34.382 2.725.395 3.889.036 3.897-.022-.638 4.293l-4.044 3.847-1.779-.943c-2.682-1.42-5.144-2.027-8.187-2.016-7.362.027-13.53 4.423-15.884 11.32C3.067 31 2.93 34.75 3.552 37.32c.931 3.84 3.578 7.547 7.017 9.827 6.728 4.461 16.284 3.3 21.726-2.64 3.55-3.875 5.035-9.277 3.959-14.405-.19-.907-.92-2.759-1.622-4.116l-1.276-2.468 3.848-3.676c2.116-2.022 3.967-3.676 4.114-3.676.146 0 .266 1.168.266 2.596 0 2.12.104 2.69.57 3.11.799.723 2.707.664 3.48-.107.582-.582.622-1.037.622-6.982 0-6.219-.015-6.37-.692-6.844-.57-.398-1.775-.484-6.784-.484s-6.215.086-6.784.484zm174.689 1.313c-5.561 4.298-9.345 7.345-9.345 7.525 0 .216 3.838 1.877 4.337 1.877.409 0 6.793-10.169 6.524-10.39-.063-.052-.745.393-1.516.988zm0 4.425c-1.742 2.937-3.121 5.375-3.064 5.418.058.043 1.646.25 3.531.46 1.885.21 4.03.463 4.768.563l1.341.18-.218-.9c-.606-2.498-2.919-10.79-3.046-10.916-.079-.08-1.57 2.258-3.312 5.195zm5.084-4.511c.091.342.831 2.983 1.644 5.868l1.478 5.246 2.202-.217c1.211-.12 2.365-.31 2.565-.424.235-.134-.896-1.907-3.209-5.029-1.966-2.652-3.86-5.102-4.209-5.444l-.636-.622.165.622zm-370.586 4.402c-.117.117-.213.584-.213 1.037 0 .725-.203.889-1.688 1.356-1.941.611-3.389 2.034-3.922 3.854-.234.797-.313 5.471-.248 14.605.092 12.988.117 13.46.737 14.31.352.483 1.258 1.193 2.012 1.578 1.341.683 1.609.7 11.58.7 8.735 0 10.392-.074 11.485-.511 1.074-.43 1.244-.614 1.07-1.167-.113-.36-.281-1.384-.374-2.276-.143-1.388-.042-1.832.706-3.106.479-.817 1.488-2.144 2.241-2.948l1.369-1.462-.101-9.897c-.089-8.715-.167-10.017-.646-10.893-.702-1.282-2.223-2.42-3.895-2.913-.905-.267-1.336-.571-1.362-.963a42.957 42.957 0 00-.078-.962c-.03-.3-2.158-.408-9.25-.471-5.066-.045-9.307.013-9.423.13zm355.222 8.798c0 2.379-.081 4.538-.181 4.797-.12.311.135.634.751.952.789.408 1.088.946 1.957 3.521.564 1.671 1.063 2.83 1.11 2.573.092-.516 1.347-13.315 1.347-13.745 0-.149-.315-.394-.701-.545a87.323 87.323 0 01-2.492-1.078l-1.791-.801v4.326zm5.933 3.054c-.211 2.695-.567 6.78-.79 9.077l-.405 4.177 1.362 3.834c.749 2.109 1.646 4.42 1.992 5.136.347.717.63 1.486.63 1.711 0 .294.553.408 1.974.408h1.974l4.957-5.304c2.727-2.917 5.001-5.428 5.055-5.58.119-.337-2.404-4.981-2.707-4.981-.119 0-.678.945-1.241 2.1-1.856 3.8-5.3 9.9-5.893 10.436-.647.585-3.496 1.536-3.496 1.167 0-.129.316-.674.701-1.21.386-.537 1.394-1.96 2.241-3.164l1.539-2.188 1.656-9.53c.911-5.242 1.606-9.581 1.545-9.642-.122-.122-9.401-1.345-10.208-1.346-.423 0-.561.762-.886 4.9zm14.388-3.947c-1.784.35-1.825.39-2.057 1.917-.111.732-.672 4.025-1.246 7.319-.574 3.293-.958 5.987-.853 5.985.104-.003.82-1.212 1.591-2.689 1.211-2.318 1.576-2.762 2.677-3.255l1.274-.571.858-3.9c.472-2.144.931-4.177 1.02-4.517.14-.532.014-.614-.886-.585-.577.019-1.647.152-2.378.296zM16.252 22.688c-3.364 1.073-5.666 3.072-7.177 6.232-.845 1.766-.968 2.357-.973 4.666-.007 3.385 1.003 5.78 3.382 8.019 4.968 4.675 12.32 4.531 17.078-.334 3.715-3.797 4.087-10.048.863-14.492-2.795-3.855-8.43-5.604-13.173-4.09zm-177.114.433c-.256.308-.334 3.236-.275 10.347l.083 9.918 10.733.254c7.365.174 10.959.151 11.452-.073l.719-.327-.082-10.193-.082-10.193-11.095-.082c-9.136-.067-11.159-.005-11.453.349zm347.342 7.547c-.725 3.015-1.252 5.548-1.17 5.63.081.081 1.132-.075 2.334-.349 1.203-.273 2.577-.496 3.054-.496.679 0 1.356-.522 3.128-2.41 1.244-1.327 2.262-2.486 2.264-2.578.002-.091-.452-.43-1.009-.753-.557-.324-2.374-1.474-4.037-2.556-1.664-1.083-3.074-1.969-3.135-1.969-.06 0-.703 2.467-1.429 5.481zm-333.327-3.75c-3.724 1.012-6.074 2.601-7.248 4.899-.802 1.57-.867 4.542-.125 5.673.461.704.465.844.031 1.462-.635.905-.605 1.167.133 1.167.336 0 .762-.28.945-.622.241-.45.654-.623 1.491-.625 1.678-.004 4.134-1.266 5.447-2.798 1.527-1.781 2.213-3.931 2.235-6.998.019-2.883-.051-2.935-2.909-2.158zm368.329 4.048a452.072 452.072 0 01-3.505 1.587c-.532.228-.548.178.874 2.69a226.79 226.79 0 011.51 2.699c.176.332 1.118.547 3.259.747 1.656.154 3.064.224 3.127.155.257-.275-1.508-9.302-1.818-9.3-.183 0-1.734.64-3.447 1.422zm-173.2.307c-.515.266-1.533 1.066-2.264 1.778l-1.328 1.296 2.135 2.03c1.174 1.117 2.437 2.434 2.805 2.926l.671.894 1.071-.816c2.541-1.935 3.362-4.708 1.99-6.723-1.253-1.84-3.18-2.366-5.08-1.385zM194.863 33.8c-1.125 1.226-1.839 2.26-1.74 2.519.184.477 6.565 10.025 8.05 12.045l.915 1.245-.217-1.245c-.12-.684-.968-3.694-1.885-6.688a910.83 910.83 0 01-2.327-7.7c-.362-1.24-.71-2.255-.773-2.255-.064 0-.974.936-2.023 2.08zm-345.453-.666c-1.023 1.163-2.979 4.767-2.725 5.02.222.222 4.542-5.595 4.367-5.879-.28-.451-.668-.248-1.642.86zm25.047-.044c-.758.334-5.14 5.093-5.14 5.583 0 .075 1.161 1.112 2.58 2.306l2.58 2.17 1.392-.325c1.128-.264 1.645-.64 2.733-1.984.737-.913 1.49-2.087 1.673-2.61 1.19-3.41-2.448-6.623-5.818-5.14zm168.57 3.06c-.428.388-1.349 1.377-2.046 2.2-1.054 1.245-1.267 1.723-1.267 2.836 0 2.932 3.256 4.82 5.93 3.44.502-.26.997-.803 1.099-1.207.101-.404.656-1.192 1.232-1.75l1.049-1.014-.765-1.002c-.421-.55-1.595-1.722-2.61-2.603l-1.844-1.602-.778.703zm145.2.78c-1.328.058-2.414.238-2.414.4 0 .24 2.542 3.463 9.21 11.677.339.417 5.119 1.016 5.119.642 0-.111-1.909-3.07-4.241-6.576-2.883-4.333-4.404-6.355-4.751-6.312-.28.035-1.595.11-2.923.169zm27.517 7.672c-2.413 2.636-4.387 4.894-4.387 5.017 0 .124 1.145.126 2.545.004l2.545-.222 4.797-4.563 4.798-4.562-1.502-.206a30.47 30.47 0 00-2.955-.233l-1.453-.028-4.388 4.793zm-349.309-2.382c-2.175 2.677-2.414 3.157-2.414 4.856 0 3.453 3.941 5.012 7.209 2.852 1.101-.728 1.202-.913 1.202-2.206 0-.776.219-1.833.486-2.35.268-.516.443-1.058.39-1.205-.121-.33-4.675-4.047-4.96-4.047-.113 0-.974.946-1.913 2.1zm183.201-.54c-.742.392-1.363 1.068-1.79 1.952-.799 1.646-.825 2.439-.11 3.293l.544.651 1.714-1.076c.942-.593 1.962-1.08 2.266-1.084.304-.004 1.44-.567 2.526-1.251 1.085-.685 2.167-1.24 2.406-1.235.59.014-.412.768-2.32 1.746-.83.425-2.234 1.358-3.12 2.075-.887.716-1.955 1.526-2.375 1.8l-.764.497.768.416c1.148.62 3.338.873 4.783.553 1.47-.326 4.11-2.694 5.367-4.813.903-1.52.774-2.592-.425-3.533-.688-.54-1.255-.616-4.56-.604-3.107.012-3.974.12-4.91.613zm-173.4 2.214c-1.293.372-2.244 1.873-2.245 3.545-.002 1.452.599 2.447 1.871 3.105 1.312.677 7.462.647 8.919-.044 2.65-1.256 2.614-5.402-.055-6.516-1.215-.507-6.836-.567-8.49-.09zm-22.806 45.233c-1.628.41-6.464 1.588-10.747 2.616-7.173 1.721-7.856 1.944-8.645 2.815-.639.706-.856 1.268-.856 2.21 0 .697 1.693 7.869 3.764 15.94 3.345 13.039 3.86 14.772 4.634 15.562 1.531 1.564 2.423 1.47 14.03-1.48 9.663-2.456 10.499-2.723 11.286-3.595.468-.518.942-1.308 1.055-1.756.219-.873-6.733-29.403-7.554-30.997-1.023-1.989-2.898-2.343-6.967-1.315zm361.807.103c-.988.602-2.634 2.382-2.634 2.848 0 .149-.686.264-1.523.258-1.579-.012-2.545.34-3.627 1.32-.579.526-.754.538-2.068.143-1.474-.443-3.422-.248-4.079.409-.216.216-.649.065-1.352-.47-1.235-.94-3.074-1.248-4.55-.762-.861.284-1.298.26-2.207-.12-3.793-1.582-8.069 1.479-7.986 5.718.012.616.132 1.4.265 1.742.171.436.015.966-.525 1.78-1.003 1.514-1.048 3.796-.105 5.391.657 1.112.658 1.129.063 1.963-.934 1.31-1.123 2.964-.519 4.543.286.749.705 1.515.93 1.701.289.24.371.952.28 2.436-.11 1.773-.019 2.286.591 3.331 1.57 2.69 4.834 3.553 6.801 1.798 1.242-1.109 1.613-3.185.74-4.148-.328-.362-.816-.571-1.138-.487-1.223.319-2.011-3.278-1.008-4.601.637-.842.561-3.508-.139-4.82-.552-1.035-.551-1.106.006-2.333.693-1.522.742-2.943.152-4.353-.325-.778-.347-1.137-.086-1.398.262-.261.252-.512-.04-.979-.215-.344-.309-.761-.207-.925.318-.515 2.103-.326 2.776.294 1.203 1.109 4.012 1.397 5.38.552.162-.1.973.162 1.803.581 1.894.958 3.378.962 5.036.015 1.112-.634 1.582-.717 3.298-.58 2.27.182 3.983-.414 4.81-1.674.268-.408.789-.731 1.179-.731.385 0 1.196-.336 1.802-.747.802-.544 1.196-.654 1.445-.404.524.523.411 1.305-.28 1.929-.862.78-.795 2.485.164 4.16.776 1.357.777 1.365.247 3.044-.487 1.542-.491 1.794-.047 2.995.457 1.236.449 1.374-.144 2.415l-.629 1.105.75 1.618.75 1.619 1.401-1.121c.771-.616 2.07-1.46 2.886-1.874 1.294-.658 1.46-.851 1.294-1.508-.115-.46.004-1.029.308-1.462.719-1.026.65-3.87-.131-5.4-.503-.987-.565-1.408-.311-2.135.776-2.224.2-4.424-1.542-5.888-.699-.587-.948-1.064-.953-1.825-.026-3.894-4.314-6.798-7.327-4.963zM31.465 90.705c-1.335.425-2.3 1.234-6.93 5.81-2.96 2.925-5.38 5.44-5.38 5.589 0 .15 1.227 1.414 2.726 2.809a478.037 478.037 0 016.638 6.362l3.912 3.825 4.966-4.974c5.946-5.954 6.803-7.299 6.822-10.698.02-3.683-1.791-6.581-5.214-8.34-1.732-.89-5.367-1.074-7.54-.383zm-180.402 3.98c-.817.816-1.059 1.316-1.059 2.193 0 3.482 3.936 5.113 6.284 2.603.696-.745.881-1.235.881-2.34 0-1.176-.169-1.567-1.059-2.457-.904-.902-1.274-1.057-2.523-1.057-1.25 0-1.62.155-2.524 1.058zm16.443-.281c-.65.547-1.167 1.508-1.742 3.237l-.817 2.461.995 4.022.995 4.022 1.488-.143c1.336-.128 1.584-.046 2.436.805 1.573 1.57 1.073 4.175-1.003 5.229-.554.282-1.054.553-1.112.603-.057.049.211 1.5.596 3.222.614 2.749.652 3.295.304 4.459-.652 2.181-2.246 3.42-5.499 4.272-1.525.4-2.882.822-3.015.937-.133.115 3.272 1.297 7.568 2.627 5.609 1.736 8.047 2.358 8.653 2.209 1.469-.363 2.519-1.682 3.214-4.039.8-2.712 3.65-12.012 6.168-20.124 1.043-3.361 1.897-6.474 1.897-6.917 0-.443-.386-1.234-.857-1.757-.756-.84-1.834-1.242-9.187-3.427-4.581-1.361-8.741-2.475-9.243-2.475-.52 0-1.312.335-1.839.777zm-26.718 2.154c-2.29.996-3.03 3.633-1.521 5.424 1.676 1.989 4.553 1.876 5.975-.235 1.214-1.801.795-3.627-1.129-4.922-1.197-.806-1.948-.866-3.325-.267zm28.817 2.956c-1.363 1.362-1.345 3.167.046 4.457 2.813 2.607 6.644-1.457 4.156-4.41-1.122-1.331-2.896-1.351-4.202-.047zm9.802 1.884c-2.063.832-2.654 3.746-1.079 5.319 1.871 1.868 4.85.662 5.223-2.116.16-1.196.078-1.411-.923-2.41-1.111-1.11-1.934-1.312-3.221-.793zm332.885.833c-.82.265-2.109.401-3.107.326-1.209-.09-2.07.039-2.959.442a6.072 6.072 0 01-4.993.013c-.919-.41-1.946-.543-3.921-.509-1.471.026-2.838.147-3.037.27-.199.123-.362.781-.362 1.463 0 1.4.942 2.602 2.308 2.944.441.11 4.133.056 8.204-.12 5.947-.259 7.48-.244 7.811.077.341.331.328.484-.077.889-.599.598-2.261.777-8.934.964-5.796.163-6.75.41-8.273 2.142-1.651 1.878-1.664 5.151-.026 6.687 1.863 1.748 6.324 2.24 8.529.941.92-.542 1.599-.677 3.211-.637 1.124.029 3.277.054 4.784.057 2.058.004 2.975.143 3.685.558.93.545.954.542 1.543-.181.329-.404.598-1.058.598-1.453 0-1.097-1.423-2.581-2.707-2.821-.611-.115-3.932-.022-7.379.207-8.582.57-8.723.567-8.861-.131-.062-.318.021-.711.185-.875.163-.164 3.436-.496 7.272-.738 3.835-.242 7.486-.585 8.113-.762.626-.177 1.556-.797 2.067-1.377.834-.949.951-1.347 1.157-3.946l.229-2.889-1.124-1.029c-1.229-1.125-1.811-1.201-3.936-.512zm-358.586 2.558c-1.35 1.348-1.558 2.506-.737 4.091 1.476 2.851 6.274 2.067 6.873-1.123.247-1.314-.613-3.127-1.765-3.722-1.618-.836-3.021-.594-4.371.754zm157.918 4.937c-3.066 3.098-5.445 5.778-5.868 6.61-.843 1.658-1.158 4.863-.658 6.707.493 1.818 2.08 4.056 3.637 5.126 1.757 1.207 4.76 1.978 6.647 1.706 3.065-.441 4.253-1.294 9.698-6.955 2.823-2.936 5.17-5.45 5.216-5.587.046-.136-1.286-1.572-2.959-3.191-6.844-6.619-10.063-9.627-10.303-9.627-.14 0-2.575 2.345-5.41 5.211zm-168.687-2.738c-1.203.733-1.717 1.623-1.717 2.971s.514 2.238 1.717 2.971c2.067 1.258 4.66.283 5.478-2.06.384-1.103.375-1.372-.083-2.337-.973-2.047-3.42-2.747-5.395-1.545zm210.996.951c-9.723 2.046-14.586 7.116-14.146 14.746.08 1.385.342 2.984.583 3.555l.439 1.038 1.91-2.913c1.877-2.864 5.859-7.438 7.01-8.053.442-.236.63-.2.763.147.11.284-.614 1.387-1.884 2.873-1.876 2.196-6.401 8.529-6.401 8.958 0 .296 2.878.201 4.849-.16 1.017-.186 2.935-.902 4.263-1.591 3.858-1.999 6.59-5.426 8.001-10.035.87-2.842 1.434-8.145.93-8.751-.498-.6-2.919-.529-6.317.186zm-177.664 3.08c-1.25.778-1.655 1.531-1.655 3.077 0 3.483 4.795 3.93 5.911.551.274-.827.255-1.283-.085-2.095-.819-1.956-2.499-2.574-4.171-1.533zm355.025 1.875c-6.067 1.279-9.68 3.698-11.646 7.798-.856 1.784-.968 2.333-.958 4.666.008 1.776.171 2.937.495 3.535l.482.891 1.796-2.559c2.527-3.602 5.932-7.114 6.427-6.629.295.29-.133 1.006-1.957 3.267-2.569 3.186-4.919 6.566-4.919 7.077 0 .415 1.16.414 3.739-.004 5.261-.852 9.287-4.495 11.244-10.177.725-2.103 1.366-6.582 1.097-7.655-.185-.736-.341-.81-1.678-.79-.811.012-2.665.273-4.122.58zm-374.474 1.421c-.448.244-1.064.967-1.369 1.609-.496 1.042-.508 1.297-.119 2.412.98 2.808 4.12 3.471 6.12 1.29 1.443-1.572 1.426-3.25-.046-4.721-.887-.885-1.28-1.055-2.415-1.045-.745.007-1.722.212-2.171.455zm-10.45 2.37c-3.131.881-3.489 5.248-.544 6.643 1.633.774 3.143.462 4.412-.91 2.515-2.72-.212-6.761-3.868-5.733zm161.486 2.803c-.91.509-.713 2.736.375 4.237 1.175 1.618 1.527 1.818 2.136 1.21.456-.456.444-.557-.147-1.204-.967-1.061-1.345-1.947-1.345-3.156 0-1.247-.252-1.515-1.019-1.087zm203.502.755c-1.083.338-1.642.359-2.458.094-1.434-.467-3.959-.122-5.17.706-1.665 1.14-2.456 2.593-2.595 4.77-.088 1.37.023 2.219.377 2.903.275.532.5 1.514.5 2.184 0 1.766.952 2.857 2.492 2.857 1.457 0 2.492-1.1 2.492-2.648 0-.555.207-1.18.46-1.389.252-.209.549-.861.659-1.449.279-1.483 1.563-2.169 2.828-1.51.896.467 3.076.618 3.971.275.341-.131.493-.59.493-1.488 0-.714.186-2.013.413-2.886l.412-1.588-1.113-.473c-1.818-.772-2.29-.817-3.761-.358zm-338.816.859c-.949.869-1.129 1.237-1.129 2.323 0 3.236 3.046 4.515 5.259 2.209.722-.752.901-1.219.901-2.344 0-1.194-.153-1.542-1.017-2.313-1.385-1.236-2.568-1.199-4.014.125z" fill="#7EC1BC"/></g><defs><clipPath id="clip0_1_1452"><path fill="#fff" d="M0 0h64.292v55.425H0z"/></clipPath></defs></svg>