<svg width="26" height="25" fill="none" xmlns="http://www.w3.org/2000/svg"><g clip-path="url(#clip0_4_2077)"><path fill-rule="evenodd" clip-rule="evenodd" d="M16.686-33.7c-1.267 1.144-2.285 2.128-2.262 2.186.023.058 1.185 1.299 2.583 2.757l2.542 2.65 2.36-2.09c1.298-1.15 2.36-2.178 2.36-2.286 0-.263-4.763-5.23-5.052-5.268-.127-.017-1.243.887-2.53 2.05zm142.432-1.636c-.967.475-1.97 1.4-2.292 2.112-.123.273-.224.333-.442.26-.706-.234-2.257-.227-2.976.013-.993.333-2.044 1.394-2.376 2.4-.812 2.465.739 5 3.275 5.35l.629.088v2.26c0 1.56.047 2.261.152 2.261.083 0 .499-.09.925-.199 2.218-.57 4.868-.742 7.767-.503 1.528.126 1.468.147 2.845-.994l.651-.54v-1.22c0-1.167.016-1.233.377-1.518 1.012-.798 2.347-1.57 2.845-1.644.471-.071.586-.16.817-.635.397-.82.354-2.145-.099-3.046-.439-.872-1.364-1.742-2.191-2.06-.632-.243-2.207-.25-2.92-.013-.229.076-.362-.034-.725-.599-.49-.762-1.14-1.331-2.08-1.82-.486-.253-.894-.332-1.92-.373-1.253-.05-1.339-.034-2.262.42zm-82.575.518c-.276.111-.309.22-.309 1.027v.903h7.233c3.978.001 7.652.041 8.165.09.846.08.928.116.89.38l-.04.29-8.056.035c-4.43.02-8.055.062-8.055.095 0 .032.088.483.195 1 .673 3.25.674 3.282.232 6.819-.581 4.646-.756 7.096-.575 8.081.26 1.414-.283 1.31 6.75 1.31 5.735 0 6.495-.046 5.998-.355-.083-.052-.298-.413-.478-.803-.398-.86-.45-2.444-.114-3.439.28-.828 1.161-1.833 1.792-2.042.57-.19 1.514-.094 2.104.213.396.206.408.202.495-.147.1-.397.047-.96-.375-4.008l-.288-2.084.42-2.614c.23-1.438.457-3.01.504-3.492.147-1.527.88-1.403-8.283-1.393-4.366.005-8.035.065-8.206.134zm-57.711 1.31c-.202.15-.222.24-.102.439.313.514.99.342.817-.207-.117-.37-.405-.465-.715-.233zm-2.419 1.95c-.165.166-.107.562.109.742.275.23.647-.067.59-.471-.041-.286-.505-.467-.698-.272zm62.597.16c-.995.036-1.13.071-1.13.297 0 .14.096.293.213.338.34.132 9.387-.084 9.474-.226.043-.07.025-.18-.04-.245-.119-.119-6.392-.239-8.517-.163zm9.427.232c0 .342.483.488 1.609.488 1.064 0 1.407-.124 1.407-.51 0-.137-.362-.18-1.508-.18-1.233 0-1.508.036-1.508.202zM8.29-26.254c-5.009 4.444-5.514 4.856-6.22 5.061-.865.252-2.07 1.17-2.07 1.577 0 .363.347.544 1.045.544.331 0 .353.035.274.437-.12.6.207.945.896.945h.527v.6c0 .758.3 1.058 1.059 1.058.611 0 .736.148.624.739-.103.543.283.919.944.919.52 0 .527.006.527.536 0 .568.28.94.576.765.97-.569 1.831-1.786 1.726-2.437-.022-.136-1.08-1.3-2.35-2.588s-2.284-2.423-2.251-2.521c.152-.46.608-.098 2.715 2.161 1.242 1.33 2.305 2.42 2.362 2.422.058.002.736-.574 1.508-1.28a643.12 643.12 0 014.327-3.887l2.922-2.605.524.516.524.515.51-.776c.282-.427.629-.839.77-.916.143-.076.26-.19.26-.252 0-.145-6.031-6.371-6.171-6.371-.058 0-2.559 2.177-5.557 4.838zm10.512-4.654c-.21.255.132.722.441.603.327-.127.3-.787-.032-.787a.599.599 0 00-.409.184zm2.318.016c-.25.303-.046.767.337.767.206 0 .357-.103.413-.283.096-.305-.133-.684-.413-.684-.095 0-.246.09-.337.2zm-2.425 2.22c-.09.238.174.62.431.62.263 0 .495-.353.4-.605-.109-.283-.725-.295-.83-.015zm-6.185.168c-.094.033-.171.133-.171.223s.884 1.052 1.964 2.139c1.72 1.729 1.987 1.948 2.144 1.758.155-.189-.058-.464-1.583-2.047-1.95-2.023-2.106-2.16-2.354-2.073zm73.961 1.083c-1.87.346-3.795 1.316-4.732 2.386-.177.202-.504.762-.727 1.244-.505 1.091-.573 2.355-.184 3.444.254.712.254.72-.027 1.03a3.552 3.552 0 00-.443.627c-.134.261-.122.328.07.402.286.11.494-.157.74-.95.299-.969 1.898-3.263 3.253-4.667.941-.974 1.304-1.27 1.42-1.153.115.116-.1.451-.84 1.31-1.264 1.466-3.205 4.396-3.03 4.572.205.207 2.02-.137 2.882-.547 1.043-.495 2.198-1.683 2.725-2.803.548-1.162.748-2.257.695-3.8-.05-1.458 0-1.428-1.802-1.095zm89.774 1.149c-.232.142-.603.474-.823.737a5.78 5.78 0 01-.839.797c-.486.354-.475.42.214 1.217l.394.457 1.218-.7c1.821-1.048 2.178-1.601 1.551-2.405-.349-.447-1.084-.491-1.715-.103zm-4.368 1.56c-.146.086-.948.686-1.783 1.335-.834.648-2.411 1.86-3.505 2.693-3.415 2.602-3.377 2.519-1.953 4.264 1.852 2.271 1.671 2.249 3.914.483.694-.547 2.326-1.8 3.628-2.784l2.366-1.79-.087-.464c-.059-.32-.009-.607.161-.925.291-.545.272-.587-.967-2.059-.806-.957-1.164-1.109-1.774-.752zm-76.106 1.638c-.955.37-1.693 1.029-2.068 1.845l-.32.694.726.766c.4.422.755.856.791.966.052.156.167.121.538-.164.6-.461 1.119-.664 1.979-.776l.685-.089.169-.687c.226-.925.028-1.634-.646-2.313-.591-.596-.854-.63-1.854-.242zm.222 1.527c-.513 1.01-.54 1.267-.123 1.207.212-.031.419-.275.683-.804.45-.901.484-1.244.125-1.244-.178 0-.39.262-.685.841zm-6.023 1.3c-1.52 1.29-1.118 4.71.66 5.607 1.413.712 1.831.4 1.353-1.007-.243-.715-.608-1.608-1.441-3.518-.039-.09.06-.233.22-.319.273-.147.33-.07.955 1.268.813 1.74 1.106 2.597 1.106 3.225 0 .597.334.643.94.13.565-.48.904-1.417.786-2.17-.218-1.395-1.081-2.502-2.465-3.161-1.038-.495-1.579-.509-2.114-.055zm67.185.213c-2.363.36-2.22.281-2.22 1.23 0 .965.312 1.449 1.069 1.66.572.161 3.196.19 5.065.056l1.24-.089.06-.834c.057-.798.09-.862.764-1.487.537-.497.654-.673.493-.735-.48-.186-4.824-.052-6.471.2zm-60.213 1.262c-.509.148-1.201.578-1.477.92-.103.127-.138.403-.09.71.044.274.008.769-.08 1.098-.152.567-.14.618.216.993 1.722 1.811 4.991.155 4.991-2.528 0-.565-.412-1.019-1.109-1.22-.581-.168-1.823-.154-2.451.027zm1.415 1.473c-1.066.64-1.421.965-1.328 1.21.128.336.493.214 1.519-.507.65-.458.994-.791.994-.966 0-.369-.212-.322-1.186.263zm64.188 1.597c-.679.4-1.312.878-1.407 1.062-.447.867.461 1.872 1.374 1.522.315-.121 2.295-1.991 2.295-2.168 0-.134-.836-1.162-.937-1.153-.05.005-.647.336-1.325.737zM3.291 2.758c-.221.223-.275.46-.275 1.227 0 .618.064 1.003.181 1.101.122.102 1.729.164 4.873.19 4.049.033 4.709.01 4.821-.17.072-.113.131-.626.133-1.139.003-1.563.264-1.485-5.003-1.485-4.273 0-4.467.011-4.73.276zm84.628.768c-.242.17-.305.35-.305.87 0 .36.074.73.165.821.097.098.59.17 1.2.176 1.71.016 1.715-.01-.281 1.906l-1.78 1.709-.783-.419c-1.181-.63-2.264-.9-3.604-.895-3.24.012-5.955 1.964-6.991 5.028-.354 1.046-.415 2.711-.14 3.853.41 1.705 1.574 3.351 3.088 4.364 2.961 1.982 7.167 1.466 9.563-1.172a7.338 7.338 0 001.742-6.398c-.084-.403-.405-1.225-.714-1.828l-.561-1.096 1.693-1.633c.931-.898 1.746-1.633 1.81-1.633.065 0 .118.52.118 1.153 0 .942.046 1.195.25 1.382.353.321 1.193.295 1.532-.048.257-.258.275-.46.275-3.1 0-2.763-.007-2.83-.305-3.04-.25-.177-.781-.215-2.986-.215s-2.735.038-2.986.215zm76.889.583c-2.447 1.909-4.113 3.262-4.113 3.342 0 .096 1.689.834 1.909.834.18 0 2.99-4.517 2.871-4.615-.027-.023-.328.175-.667.44zm0 1.965c-.767 1.304-1.374 2.387-1.348 2.406.025.02.724.111 1.554.205.829.093 1.774.206 2.098.25l.59.08-.096-.4c-.266-1.11-1.284-4.792-1.34-4.848-.035-.036-.691 1.003-1.458 2.307zm2.238-2.003c.04.152.365 1.324.723 2.606l.651 2.33.969-.097c.533-.053 1.041-.137 1.129-.188.104-.06-.394-.847-1.412-2.233-.866-1.178-1.699-2.266-1.853-2.418l-.28-.277.073.277zM3.933 6.026c-.052.052-.094.259-.094.46 0 .322-.09.395-.743.603-.854.271-1.492.903-1.726 1.711-.103.354-.138 2.43-.11 6.487.041 5.768.052 5.978.325 6.355.155.215.554.53.886.7.59.305.708.312 5.096.312 3.845 0 4.574-.033 5.056-.227.472-.19.547-.273.47-.518-.05-.16-.123-.615-.164-1.01-.063-.617-.019-.815.31-1.38a9.1 9.1 0 01.987-1.31l.603-.649-.045-4.396c-.04-3.87-.073-4.448-.284-4.838-.31-.569-.979-1.074-1.714-1.293-.399-.119-.589-.254-.6-.428-.01-.14-.025-.332-.034-.427-.014-.133-.95-.181-4.072-.21-2.23-.02-4.096.006-4.147.058zm156.35 3.907c0 1.057-.035 2.016-.079 2.13-.053.139.059.282.33.424.348.18.479.42.862 1.563.248.743.468 1.257.488 1.143.041-.23.593-5.914.593-6.105 0-.065-.139-.175-.308-.242-.17-.067-.664-.282-1.097-.478l-.789-.356v1.921zm2.612 1.357a270.41 270.41 0 01-.348 4.031l-.178 1.855.599 1.703c.33.936.725 1.963.877 2.281.153.318.277.66.277.76 0 .13.244.181.869.181h.869l2.182-2.356c1.2-1.295 2.201-2.41 2.225-2.478.052-.15-1.059-2.212-1.191-2.212-.053 0-.299.42-.547.932-.817 1.688-2.333 4.398-2.594 4.636-.284.26-1.538.682-1.538.518 0-.057.139-.3.308-.538.17-.238.614-.87.986-1.405l.678-.971.729-4.233c.401-2.328.707-4.255.68-4.282-.054-.055-4.138-.598-4.493-.598-.186 0-.247.338-.39 2.176zm6.333-1.754c-.785.156-.804.174-.906.852-.049.325-.295 1.788-.548 3.25-.253 1.463-.422 2.66-.376 2.659.046-.001.361-.539.701-1.194.533-1.03.693-1.227 1.178-1.446l.561-.254.377-1.732c.208-.952.41-1.855.449-2.006.062-.236.007-.273-.39-.26a7.91 7.91 0 00-1.046.131zm-88.239.54c-1.48.477-2.494 1.365-3.159 2.768-.372.785-.426 1.047-.428 2.073-.003 1.503.441 2.567 1.488 3.56 2.187 2.077 5.423 2.013 7.517-.147 1.635-1.687 1.8-4.463.38-6.437-1.23-1.712-3.71-2.489-5.798-1.817zm-77.956.192c-.113.137-.147 1.438-.121 4.596l.036 4.405 4.724.113c3.242.077 4.824.067 5.041-.033l.316-.145-.036-4.527-.036-4.527-4.883-.036c-4.022-.03-4.912-.003-5.041.154zm152.882 3.352c-.319 1.34-.551 2.464-.515 2.5.036.037.498-.033 1.027-.154.53-.121 1.134-.22 1.344-.22.299 0 .597-.232 1.377-1.071.548-.589.996-1.104.997-1.145.001-.04-.199-.191-.444-.334a64.109 64.109 0 01-1.777-1.136c-.733-.48-1.353-.874-1.38-.874-.027 0-.31 1.096-.629 2.434zM9.201 11.956c-1.639.45-2.673 1.155-3.19 2.176-.353.697-.382 2.017-.055 2.52.203.312.205.374.014.648-.28.402-.266.52.058.52.148 0 .335-.125.416-.277.106-.2.288-.277.656-.278.739-.002 1.82-.562 2.398-1.243.672-.79.974-1.746.984-3.108.008-1.28-.023-1.303-1.28-.958zm162.12 1.798c-.754.347-1.448.664-1.543.705-.234.1-.241.079.385 1.194.306.546.605 1.085.665 1.199.077.147.492.243 1.434.332.729.068 1.348.1 1.377.069.112-.123-.664-4.131-.801-4.13-.08 0-.763.284-1.517.63zm-76.234.136c-.226.118-.675.473-.996.79l-.585.575.94.902c.517.496 1.072 1.08 1.235 1.3l.295.397.471-.363c1.119-.86 1.48-2.09.876-2.986-.551-.817-1.4-1.05-2.236-.615zm64.518 1.122c-.495.544-.809 1.004-.766 1.119.081.212 2.89 4.452 3.544 5.35l.402.552-.095-.553c-.053-.303-.426-1.64-.83-2.97-.404-1.33-.865-2.869-1.024-3.42-.16-.55-.313-1.001-.341-1.001-.028 0-.428.415-.89.923zm-152.05-.296c-.45.517-1.312 2.117-1.2 2.23.097.099 2-2.485 1.922-2.611-.123-.2-.294-.11-.723.381zm11.024-.02c-.334.149-2.263 2.263-2.263 2.48 0 .034.511.494 1.136 1.024l1.135.964.613-.144c.497-.117.724-.284 1.203-.881.325-.406.656-.927.736-1.16.524-1.514-1.077-2.941-2.56-2.282zm74.196 1.36a13.08 13.08 0 00-.901.977c-.464.553-.558.765-.558 1.26 0 1.301 1.433 2.14 2.61 1.527.222-.115.44-.357.484-.536.045-.18.289-.53.543-.777l.461-.45-.337-.446c-.185-.244-.702-.764-1.148-1.156l-.812-.711-.342.312zm63.909.346c-.584.026-1.062.106-1.062.178 0 .106 1.119 1.538 4.054 5.186.149.185 2.253.451 2.253.285 0-.05-.84-1.364-1.867-2.92-1.269-1.925-1.939-2.823-2.091-2.804-.123.015-.702.05-1.287.075zm12.112 3.407c-1.062 1.171-1.931 2.174-1.931 2.229 0 .055.504.056 1.12.001l1.12-.098 2.112-2.027 2.111-2.026-.661-.091a13.51 13.51 0 00-1.3-.104l-.64-.012-1.931 2.128zM15.048 18.752c-.958 1.188-1.063 1.401-1.063 2.156 0 1.534 1.735 2.226 3.173 1.267.485-.324.53-.405.53-.98 0-.344.096-.814.213-1.043.118-.23.195-.47.172-.536-.053-.146-2.058-1.797-2.183-1.797-.05 0-.429.42-.842.933zm80.636-.24c-.327.174-.6.474-.789.867-.35.73-.362 1.083-.048 1.462l.24.29.754-.479c.415-.263.864-.48.997-.481.134-.002.634-.252 1.112-.556.478-.304.954-.55 1.06-.548.26.006-.182.341-1.022.775a9.741 9.741 0 00-1.373.922c-.39.318-.86.678-1.045.8l-.337.22.338.185c.505.275 1.47.388 2.106.245.646-.144 1.808-1.196 2.362-2.137.397-.675.34-1.151-.187-1.57-.303-.24-.553-.273-2.007-.267-1.368.005-1.75.053-2.161.272zm-76.322.983c-.57.165-.988.832-.988 1.575-.001.644.263 1.087.823 1.378.577.301 3.284.288 3.926-.02 1.166-.557 1.15-2.398-.024-2.893-.535-.225-3.01-.252-3.737-.04zM9.324 39.584c-.717.182-2.845.705-4.73 1.161-3.158.765-3.458.864-3.806 1.25-.28.314-.377.564-.377.982 0 .31.746 3.495 1.657 7.08 1.472 5.79 1.7 6.56 2.04 6.911.674.694 1.067.653 6.175-.657 4.253-1.091 4.621-1.21 4.968-1.597.206-.23.415-.581.464-.78.097-.388-2.964-13.058-3.325-13.767-.45-.883-1.275-1.04-3.066-.584zm159.249.045c-.435.267-1.16 1.058-1.16 1.265 0 .066-.301.117-.67.115-.695-.006-1.12.15-1.596.586-.255.233-.332.239-.911.063-.648-.196-1.506-.11-1.795.182-.095.096-.286.029-.595-.209a2.26 2.26 0 00-2.003-.338c-.379.126-.571.115-.971-.053-1.67-.703-3.552.656-3.515 2.539.005.274.058.622.116.774.076.194.007.429-.231.79-.441.673-.461 1.686-.046 2.395.289.494.29.501.028.872-.411.581-.494 1.316-.229 2.017.127.333.311.673.41.756.127.106.163.422.123 1.081-.048.788-.008 1.016.26 1.48.691 1.194 2.128 1.578 2.993.798.547-.492.711-1.414.326-1.842-.144-.16-.359-.253-.501-.216-.538.142-.885-1.456-.443-2.044.28-.374.246-1.558-.061-2.14-.243-.46-.243-.491.002-1.036.305-.676.327-1.307.067-1.934-.143-.345-.153-.505-.038-.62.116-.117.111-.228-.017-.435-.095-.153-.136-.338-.092-.411.141-.229.926-.145 1.222.13.53.493 1.766.62 2.369.246.071-.045.428.071.793.258.834.425 1.487.427 2.217.006.489-.282.696-.318 1.451-.257.999.08 1.753-.184 2.117-.744.118-.181.347-.325.519-.325.17 0 .527-.149.793-.331.354-.242.527-.29.637-.18.23.233.18.58-.124.857-.379.346-.35 1.104.072 1.848.342.602.342.606.109 1.352-.214.684-.216.796-.02 1.33.201.549.197.61-.064 1.073l-.277.49.33.719.33.719.617-.498c.34-.274.911-.648 1.27-.833.57-.292.643-.377.57-.67a.836.836 0 01.135-.648c.317-.456.287-1.72-.057-2.399-.222-.438-.249-.625-.137-.948.342-.988.088-1.965-.679-2.615-.307-.26-.417-.473-.419-.81-.012-1.73-1.899-3.02-3.225-2.205zm-80.888.656c-.588.189-1.013.548-3.05 2.58-1.303 1.3-2.368 2.416-2.368 2.482 0 .067.54.628 1.2 1.248.66.62 1.974 1.891 2.921 2.825l1.722 1.7 2.186-2.21c2.617-2.644 2.994-3.241 3.003-4.751.009-1.636-.789-2.923-2.295-3.704-.763-.395-2.362-.477-3.319-.17zM8.282 42.052c-.36.363-.467.585-.467.974 0 1.547 1.733 2.271 2.766 1.156.307-.33.388-.548.388-1.04 0-.521-.074-.695-.466-1.09-.398-.4-.56-.47-1.11-.47-.551 0-.714.07-1.111.47zm7.237-.124c-.287.242-.514.669-.767 1.437l-.36 1.093.438 1.786.438 1.787.655-.064c.588-.057.697-.02 1.072.358.693.697.473 1.854-.441 2.322a6.462 6.462 0 00-.49.268c-.025.022.093.666.263 1.431.27 1.22.287 1.463.133 1.98-.286.97-.988 1.52-2.42 1.898-.67.177-1.268.365-1.327.416-.058.05 1.44.576 3.331 1.166 2.47.771 3.542 1.048 3.809.981.647-.16 1.109-.746 1.414-1.793.353-1.205 1.607-5.335 2.715-8.938.46-1.493.835-2.875.835-3.072 0-.197-.17-.548-.377-.78-.333-.373-.807-.552-4.043-1.522-2.017-.605-3.848-1.1-4.069-1.1-.229 0-.577.15-.81.346zm-11.76.956c-1.008.442-1.334 1.614-.67 2.409.738.883 2.004.833 2.63-.104.535-.8.35-1.611-.497-2.186-.526-.358-.857-.385-1.463-.119zm12.684 1.313c-.6.605-.593 1.407.02 1.98 1.238 1.157 2.924-.648 1.83-1.959-.495-.591-1.276-.6-1.85-.021zm4.314.837c-.908.37-1.168 1.663-.475 2.362.824.83 2.135.294 2.299-.94.07-.53.034-.627-.406-1.07-.49-.493-.852-.583-1.418-.352zm146.519.37c-.361.117-.928.178-1.368.145-.531-.04-.911.017-1.302.196a2.65 2.65 0 01-2.197.006c-.405-.182-.857-.242-1.726-.226-.648.01-1.25.065-1.337.12-.088.054-.16.346-.16.65 0 .62.415 1.155 1.016 1.307.195.049 1.82.025 3.611-.054 2.618-.114 3.293-.108 3.439.035.15.147.144.215-.035.394-.263.266-.995.346-3.932.429-2.551.072-2.971.182-3.641.95-.727.835-.733 2.289-.012 2.971.82.776 2.784.995 3.754.418.405-.241.704-.3 1.414-.283.494.013 1.442.024 2.105.025.906.002 1.31.063 1.622.248.41.242.42.24.679-.08.145-.18.264-.47.264-.646 0-.487-.627-1.146-1.192-1.253-.269-.05-1.73-.01-3.248.093-3.777.252-3.839.251-3.9-.059-.027-.14.009-.316.081-.389.073-.072 1.513-.22 3.201-.327 1.688-.107 3.295-.26 3.571-.339.276-.078.685-.353.91-.611.367-.422.419-.599.509-1.753l.101-1.283-.494-.457c-.541-.5-.798-.533-1.733-.227zM9.445 46.54c-.594.599-.686 1.113-.325 1.817.65 1.266 2.762.918 3.026-.499.108-.584-.27-1.389-.777-1.653-.713-.371-1.33-.264-1.924.335zm69.507 2.192c-1.35 1.377-2.396 2.567-2.583 2.936-.37.736-.51 2.16-.29 2.98.218.807.917 1.8 1.602 2.275.773.536 2.095.879 2.925.758 1.35-.196 1.872-.574 4.269-3.089 1.242-1.304 2.276-2.42 2.296-2.481.02-.06-.566-.698-1.303-1.417-3.012-2.94-4.429-4.276-4.535-4.276-.061 0-1.133 1.042-2.381 2.314zM4.705 47.517c-.53.325-.756.72-.756 1.319s.226.994.756 1.32c.91.558 2.05.125 2.41-.916.17-.49.166-.609-.036-1.037-.428-.91-1.505-1.22-2.374-.687zm92.87.422c-4.28.909-6.42 3.16-6.227 6.55.035.614.15 1.324.257 1.578l.193.46.84-1.293c.827-1.272 2.58-3.303 3.086-3.576.194-.105.277-.09.336.065.048.126-.27.616-.83 1.276-.825.975-2.817 3.788-2.817 3.978 0 .132 1.267.09 2.134-.07.448-.083 1.292-.401 1.877-.707 1.698-.888 2.9-2.41 3.522-4.457.383-1.262.631-3.618.409-3.887-.219-.266-1.285-.235-2.78.083zm-78.2 1.368c-.55.345-.728.68-.728 1.366 0 1.547 2.11 1.746 2.602.245.12-.367.112-.57-.037-.93-.36-.87-1.1-1.143-1.836-.681zm156.265.833c-2.671.568-4.261 1.642-5.126 3.463-.377.792-.426 1.036-.422 2.072.004.789.075 1.304.218 1.57l.212.396.79-1.137c1.113-1.6 2.612-3.16 2.829-2.944.13.129-.058.447-.861 1.451-1.131 1.415-2.165 2.916-2.165 3.143 0 .185.51.184 1.646-.001 2.315-.379 4.087-1.997 4.949-4.52.319-.935.601-2.924.482-3.4-.081-.327-.15-.36-.738-.351-.357.005-1.173.121-1.814.258zm-164.825.63c-.197.109-.468.43-.602.715-.218.463-.224.576-.053 1.072.432 1.247 1.814 1.54 2.694.573.635-.699.628-1.444-.02-2.097-.39-.393-.564-.469-1.063-.464-.328.003-.758.093-.956.202zm-4.6 1.053c-1.377.392-1.535 2.33-.239 2.95.719.344 1.384.206 1.942-.404 1.107-1.208-.093-3.002-1.702-2.546zm71.079 1.245c-.401.226-.314 1.215.165 1.882.517.719.672.807.94.537.2-.202.195-.247-.065-.534-.426-.472-.592-.865-.592-1.402 0-.554-.11-.673-.448-.483zm89.571.335c-.477.15-.723.16-1.082.042-.631-.207-1.743-.054-2.275.314-.734.506-1.082 1.151-1.143 2.118-.038.609.01.986.166 1.29.121.236.22.672.22.97 0 .784.419 1.269 1.097 1.269.642 0 1.097-.489 1.097-1.176 0-.247.091-.524.202-.617.111-.093.242-.383.291-.644.122-.659.687-.963 1.244-.67.395.207 1.354.274 1.748.121.15-.058.217-.262.217-.66 0-.318.082-.895.182-1.282l.181-.706-.49-.21c-.8-.343-1.008-.362-1.655-.159zm-149.13.382c-.418.386-.496.55-.496 1.032 0 1.437 1.34 2.005 2.314.98.318-.333.397-.54.397-1.04 0-.53-.068-.685-.448-1.027-.61-.55-1.13-.533-1.767.055z" fill="#CA9D9A"/></g><defs><clipPath id="clip0_4_2077"><path fill="#fff" d="M0 0h25.696v24.616H0z"/></clipPath></defs></svg>