<svg width="30" height="23" fill="none" xmlns="http://www.w3.org/2000/svg"><g clip-path="url(#clip0_4_2132)"><path fill-rule="evenodd" clip-rule="evenodd" d="M-145.158-76.849c-1.351 1.22-2.436 2.269-2.411 2.331.024.062 1.263 1.384 2.753 2.938l2.709 2.826 2.516-2.228c1.383-1.226 2.515-2.322 2.515-2.437 0-.28-5.076-5.574-5.384-5.615-.135-.018-1.326.946-2.698 2.185zM6.654-78.59c-1.03.506-2.1 1.49-2.442 2.25-.132.292-.24.355-.472.278-.753-.25-2.405-.243-3.172.013-1.059.355-2.179 1.486-2.532 2.558-.866 2.628.787 5.33 3.49 5.703l.67.093v2.41c0 1.662.05 2.41.162 2.41.09 0 .533-.096.987-.213 2.364-.608 5.188-.791 8.278-.536 1.629.135 1.565.157 3.032-1.06l.694-.575v-1.3c0-1.244.018-1.315.402-1.618 1.08-.85 2.502-1.673 3.033-1.753.502-.075.624-.17.87-.677.423-.873.378-2.286-.105-3.245-.468-.93-1.454-1.858-2.336-2.197-.673-.26-2.352-.267-3.112-.014-.243.081-.385-.036-.772-.638-.523-.812-1.216-1.419-2.218-1.94-.518-.27-.952-.354-2.046-.397-1.335-.053-1.427-.036-2.411.448zm-88.014.551c-.293.12-.328.235-.328 1.095v.962l7.709.001c4.24 0 8.156.044 8.702.096.902.086.99.123.95.404l-.044.31-8.585.037c-4.723.021-8.586.066-8.586.101 0 .034.093.514.208 1.066.717 3.464.718 3.498.247 7.268-.62 4.953-.806 7.564-.613 8.614.276 1.507-.301 1.395 7.195 1.395 6.112 0 6.922-.048 6.393-.378-.089-.055-.318-.44-.51-.855-.424-.918-.48-2.606-.122-3.666.299-.883 1.238-1.953 1.91-2.177.608-.202 1.615-.1 2.243.228.422.219.435.215.528-.157.106-.424.05-1.024-.4-4.273l-.307-2.22.447-2.787c.246-1.532.488-3.207.538-3.722.157-1.627.939-1.495-8.829-1.485-4.653.006-8.564.07-8.746.143zm-61.511 1.396c-.215.16-.237.257-.108.468.333.548 1.055.365.87-.22-.124-.395-.432-.495-.762-.248zm-2.577 2.078c-.177.178-.115.6.115.792.293.245.689-.072.628-.502-.043-.305-.537-.497-.743-.29zm66.719.172c-1.061.038-1.206.076-1.206.316 0 .15.103.312.228.36.363.141 10.005-.089 10.098-.24.046-.075.026-.193-.043-.262-.126-.126-6.812-.254-9.077-.174zm10.047.247c0 .364.515.52 1.715.52 1.135 0 1.5-.133 1.5-.544 0-.146-.386-.192-1.607-.192-1.315 0-1.608.04-1.608.216zm-85.424 5.235c-5.339 4.737-5.877 5.176-6.63 5.395-.923.268-2.207 1.246-2.207 1.68 0 .388.37.58 1.114.58.353 0 .377.038.292.466-.127.64.22 1.007.955 1.007h.562v.64c0 .808.32 1.127 1.128 1.127.652 0 .785.158.666.788-.11.579.301.98 1.005.98.555 0 .562.006.562.57 0 .607.298 1.002.615.816 1.033-.606 1.951-1.904 1.839-2.597-.023-.145-1.151-1.386-2.505-2.759-1.354-1.372-2.434-2.582-2.399-2.687.162-.49.648-.104 2.894 2.304 1.323 1.418 2.456 2.58 2.518 2.582.061.002.784-.612 1.607-1.364a667.3 667.3 0 014.611-4.144l3.116-2.776.558.55.558.548.545-.827c.299-.455.669-.894.82-.976.152-.082.276-.203.276-.269 0-.154-6.428-6.79-6.577-6.79-.062 0-2.727 2.32-5.923 5.156zm11.205-4.96c-.224.272.14.77.47.642.348-.135.319-.838-.034-.838a.638.638 0 00-.436.196zm2.47.017c-.266.323-.049.817.359.817.22 0 .38-.11.441-.301.102-.325-.142-.73-.441-.73-.101 0-.262.097-.359.214zm-2.584 2.366c-.097.254.185.66.459.66.28 0 .528-.375.425-.644-.115-.302-.771-.314-.884-.016zm-6.592.179c-.101.035-.183.142-.183.238 0 .095.942 1.121 2.093 2.28 1.832 1.842 2.118 2.076 2.285 1.873.165-.2-.062-.494-1.687-2.181-2.078-2.156-2.245-2.303-2.508-2.21zm78.83 1.155c-1.993.368-4.044 1.402-5.043 2.543-.189.215-.537.812-.775 1.326-.538 1.163-.61 2.51-.196 3.67.271.76.271.768-.029 1.1a3.803 3.803 0 00-.472.667c-.142.278-.13.349.076.428.304.118.526-.168.787-1.012.319-1.033 2.024-3.478 3.468-4.975 1.003-1.038 1.39-1.353 1.513-1.23.123.125-.106.482-.894 1.397-1.348 1.563-3.417 4.685-3.23 4.874.218.22 2.153-.147 3.072-.583 1.11-.528 2.342-1.795 2.904-2.988.584-1.239.797-2.406.74-4.05-.053-1.554 0-1.522-1.92-1.167zM24.91-68.93c-.248.152-.642.506-.877.786s-.637.662-.895.85c-.518.377-.505.448.228 1.297l.42.486 1.299-.746c1.94-1.116 2.321-1.706 1.653-2.563-.372-.476-1.155-.523-1.828-.11zm-4.656 1.664c-.155.09-1.01.73-1.9 1.421-.889.691-2.57 1.983-3.735 2.871-3.64 2.774-3.6 2.685-2.083 4.545 1.975 2.42 1.781 2.397 4.172.515.74-.583 2.48-1.919 3.867-2.968l2.522-1.908-.092-.494c-.064-.34-.01-.647.17-.986.311-.581.29-.626-1.03-2.194-.86-1.02-1.24-1.182-1.89-.802zm-81.117 1.744c-1.019.396-1.805 1.097-2.205 1.967l-.34.74.773.817c.425.449.805.912.843 1.029.056.167.178.13.574-.174.64-.492 1.192-.709 2.108-.828l.731-.094.18-.733c.24-.985.03-1.742-.688-2.465-.63-.635-.911-.672-1.976-.259zm.236 1.628c-.547 1.078-.575 1.351-.131 1.287.226-.033.446-.293.728-.858.48-.96.516-1.325.133-1.325-.19 0-.416.279-.73.896zm-6.42 1.386c-1.62 1.374-1.191 5.021.703 5.976 1.507.759 1.953.427 1.443-1.073-.259-.762-.649-1.714-1.536-3.75-.041-.095.064-.248.234-.34.292-.157.353-.075 1.019 1.351.865 1.856 1.179 2.77 1.179 3.438 0 .636.355.685 1 .138.603-.51.965-1.51.84-2.313-.233-1.486-1.154-2.666-2.629-3.369-1.105-.527-1.682-.542-2.253-.058zm71.61.227c-2.52.385-2.366.3-2.366 1.31 0 1.03.332 1.545 1.139 1.771.61.171 3.407.202 5.398.059l1.322-.095.064-.889c.061-.85.096-.919.815-1.585.571-.53.697-.717.525-.783-.511-.198-5.142-.055-6.897.212zm-64.179 1.346c-.542.157-1.28.615-1.574.98-.11.136-.147.43-.096.756.047.293.008.82-.085 1.17-.162.605-.15.66.23 1.06 1.835 1.93 5.32.165 5.32-2.695 0-.603-.44-1.086-1.182-1.3-.62-.18-1.943-.165-2.613.029zm1.508 1.57c-1.135.682-1.514 1.027-1.415 1.29.137.357.526.227 1.62-.542.693-.488 1.059-.843 1.059-1.029 0-.393-.226-.343-1.264.28zm68.416 1.701c-.724.427-1.399.936-1.5 1.132-.476.924.492 1.995 1.465 1.622.336-.128 2.446-2.122 2.446-2.31 0-.143-.89-1.239-.999-1.229-.053.005-.69.358-1.413.785zm-169.743 19.676c-.236.237-.293.491-.293 1.307 0 .66.068 1.07.193 1.175.129.108 1.842.174 5.193.202 4.316.035 5.019.01 5.139-.18.077-.122.14-.669.141-1.215.004-1.666.283-1.583-5.332-1.583-4.554 0-4.761.012-5.041.294zm90.201.819c-.258.181-.325.372-.325.927 0 .384.08.778.176.875.103.105.628.181 1.278.187 1.825.017 1.829-.01-.299 2.032l-1.897 1.822-.835-.446c-1.258-.673-2.413-.96-3.84-.955-3.454.013-6.348 2.094-7.452 5.359-.377 1.115-.442 2.89-.15 4.107.437 1.817 1.678 3.572 3.292 4.652 3.156 2.111 7.64 1.562 10.192-1.25a7.822 7.822 0 001.857-6.82c-.089-.428-.431-1.305-.76-1.948l-.599-1.168 1.805-1.74c.993-.957 1.861-1.74 1.93-1.74.069 0 .125.553.125 1.229 0 1.003.049 1.273.267 1.472.375.342 1.27.314 1.633-.05.273-.276.292-.491.292-3.306 0-2.944-.007-3.015-.325-3.24-.267-.188-.832-.229-3.182-.229s-2.916.041-3.183.23zm81.953.621c-2.609 2.034-4.384 3.477-4.384 3.562 0 .102 1.8.889 2.034.889.192 0 3.188-4.814 3.061-4.92-.03-.024-.35.187-.711.47zm0 2.094c-.817 1.39-1.464 2.545-1.437 2.565.027.02.772.118 1.656.218.884.1 1.89.22 2.237.267l.629.085-.103-.426c-.284-1.183-1.369-5.108-1.428-5.168-.037-.038-.737 1.07-1.554 2.46zm2.385-2.135c.043.162.39 1.412.771 2.778l.694 2.483 1.033-.102c.568-.057 1.11-.147 1.203-.201.11-.064-.42-.903-1.506-2.38-.922-1.256-1.81-2.416-1.974-2.578l-.298-.294.077.294zm-173.855 2.084c-.055.055-.1.276-.1.49 0 .344-.095.422-.792.643-.911.289-1.59.963-1.84 1.824-.11.377-.147 2.59-.116 6.914.043 6.148.054 6.372.345 6.774.166.228.591.564.945.747.628.323.754.331 5.432.331 4.098 0 4.875-.035 5.388-.242.504-.203.584-.29.502-.552-.053-.17-.132-.655-.175-1.077-.068-.657-.02-.868.331-1.47a9.595 9.595 0 011.051-1.396l.642-.692-.047-4.686c-.042-4.125-.078-4.741-.303-5.156-.33-.607-1.043-1.145-1.827-1.379-.425-.126-.627-.27-.64-.456-.01-.149-.026-.354-.036-.455-.014-.142-1.013-.193-4.34-.223-2.376-.022-4.366.006-4.42.061zM7.896-30.34c0 1.126-.038 2.148-.085 2.27-.056.148.063.3.353.451.37.193.51.448.918 1.667.264.791.499 1.34.52 1.218.044-.245.632-6.303.632-6.507 0-.07-.148-.186-.328-.258a40.656 40.656 0 01-1.17-.51l-.84-.38v2.049zm2.784 1.446c-.1 1.275-.266 3.209-.37 4.296l-.19 1.978.638 1.815c.351.998.772 2.092.935 2.431.162.34.295.703.295.81 0 .139.26.193.926.193h.926l2.326-2.51c1.279-1.382 2.346-2.57 2.371-2.642.056-.16-1.128-2.358-1.27-2.358-.055 0-.318.447-.582.994-.87 1.799-2.486 4.687-2.765 4.94-.303.277-1.64.727-1.64.553 0-.062.149-.32.33-.573.18-.255.653-.928 1.05-1.498l.722-1.036.777-4.511c.428-2.482.754-4.536.725-4.564-.057-.058-4.41-.637-4.789-.638-.198 0-.263.361-.415 2.32zm6.75-1.87c-.837.167-.857.185-.966.909-.052.346-.315 1.905-.584 3.464-.27 1.56-.45 2.834-.4 2.833.048 0 .384-.574.746-1.272.568-1.098.74-1.308 1.256-1.541l.598-.27.402-1.846c.222-1.016.437-1.978.479-2.14.065-.25.007-.29-.416-.276-.27.009-.773.072-1.115.14zm-94.05.576c-1.578.508-2.658 1.455-3.367 2.95-.397.836-.454 1.116-.457 2.21-.003 1.602.471 2.735 1.587 3.795 2.33 2.213 5.78 2.145 8.012-.158 1.743-1.797 1.917-4.757.405-6.86-1.311-1.825-3.955-2.653-6.18-1.937zm-83.09.205c-.121.146-.157 1.532-.129 4.898l.038 4.695 5.036.12c3.455.083 5.141.072 5.372-.034l.337-.155-.038-4.825-.039-4.825-5.205-.039c-4.286-.032-5.234-.003-5.372.165zM3.24-26.411c-.34 1.427-.587 2.626-.55 2.665.04.038.532-.036 1.096-.165.564-.13 1.209-.235 1.433-.235.318 0 .636-.247 1.467-1.141.584-.628 1.062-1.177 1.063-1.22 0-.044-.213-.204-.474-.357a68.84 68.84 0 01-1.894-1.21c-.78-.512-1.442-.932-1.47-.932-.029 0-.33 1.168-.67 2.595zm-156.375-1.776c-1.747.48-2.85 1.232-3.401 2.32-.376.742-.407 2.15-.059 2.685.217.333.218.4.015.692-.298.429-.284.553.062.553.158 0 .358-.133.444-.295.113-.213.307-.295.699-.296.787-.002 1.939-.599 2.556-1.324.716-.843 1.038-1.861 1.048-3.313.009-1.365-.024-1.39-1.364-1.022zM19.661-26.27c-.804.37-1.544.708-1.645.751-.249.108-.257.084.41 1.274.326.58.645 1.155.709 1.277.083.157.524.26 1.529.354.777.073 1.437.106 1.467.073.12-.13-.708-4.403-.853-4.402-.086 0-.814.303-1.617.673zm-81.255.145c-.241.126-.719.505-1.062.842l-.623.613 1.002.962c.55.528 1.143 1.151 1.316 1.384l.315.424.502-.387c1.192-.916 1.577-2.228.933-3.182-.587-.872-1.492-1.12-2.383-.656zm68.767 1.196c-.527.58-.862 1.07-.816 1.192.086.226 3.08 4.746 3.777 5.702l.429.59-.102-.59c-.056-.324-.454-1.748-.884-3.166-.43-1.417-.922-3.057-1.092-3.645-.17-.587-.333-1.067-.363-1.067-.03 0-.457.443-.949.984zm-162.064-.315c-.48.55-1.398 2.256-1.279 2.376.105.105 2.131-2.648 2.049-2.783-.131-.213-.313-.117-.77.407zm11.75-.021c-.355.158-2.411 2.41-2.411 2.643 0 .035.545.526 1.21 1.091l1.211 1.027.653-.153c.529-.125.772-.303 1.282-.94.346-.432.699-.987.785-1.235.558-1.614-1.149-3.136-2.73-2.433zm79.082 1.449c-.2.183-.632.651-.96 1.041-.494.59-.594.815-.594 1.342 0 1.388 1.528 2.282 2.782 1.628.236-.122.468-.38.516-.57.047-.192.308-.565.578-.829l.492-.48-.36-.474c-.197-.261-.747-.816-1.223-1.233l-.865-.758-.365.333zm68.119.368c-.623.028-1.133.113-1.133.19 0 .113 1.193 1.64 4.321 5.528.16.197 2.402.48 2.402.303 0-.052-.896-1.453-1.99-3.113-1.352-2.05-2.066-3.008-2.229-2.988-.13.017-.748.053-1.371.08zm12.91 3.632c-1.133 1.248-2.06 2.317-2.06 2.375 0 .06.538.06 1.195.002l1.194-.105 2.25-2.16 2.251-2.16-.704-.097a14.125 14.125 0 00-1.386-.11l-.682-.013-2.058 2.268zm-163.874-1.127c-1.021 1.267-1.132 1.494-1.132 2.298 0 1.635 1.848 2.373 3.381 1.35.517-.344.564-.432.564-1.044 0-.367.103-.867.228-1.112.126-.244.208-.501.183-.57-.056-.157-2.193-1.916-2.326-1.916-.054 0-.458.447-.898.994zm85.946-.256c-.348.186-.64.506-.84.924-.374.78-.387 1.155-.052 1.559l.256.308.804-.51c.442-.28.92-.51 1.063-.512.142-.002.676-.269 1.185-.593.509-.324 1.017-.587 1.129-.584.277.006-.194.363-1.089.826-.39.201-1.048.643-1.463.983a19.02 19.02 0 01-1.114.851l-.359.236.36.197c.539.293 1.566.413 2.245.262.689-.155 1.927-1.275 2.517-2.279.424-.72.363-1.226-.2-1.672-.322-.256-.588-.292-2.138-.286-1.458.006-1.865.057-2.304.29zm-81.348 1.048c-.607.176-1.053.887-1.053 1.678-.001.688.281 1.159.878 1.47.615.32 3.5.306 4.184-.02 1.243-.595 1.226-2.558-.026-3.085-.57-.24-3.207-.268-3.983-.043zm-10.699 21.412c-.764.195-3.033.752-5.042 1.239-3.365.815-3.685.92-4.056 1.333-.299.333-.401.6-.401 1.046 0 .33.794 3.725 1.765 7.545 1.57 6.173 1.812 6.993 2.175 7.367.718.74 1.136.696 6.582-.7 4.533-1.163 4.925-1.29 5.294-1.702.22-.246.442-.62.495-.832.103-.413-3.159-13.918-3.544-14.673-.48-.941-1.359-1.109-3.268-.623zm169.736.05c-.463.284-1.236 1.127-1.236 1.348 0 .07-.321.125-.714.122-.74-.006-1.194.16-1.701.625-.272.248-.354.254-.97.067-.692-.21-1.606-.117-1.914.194-.102.102-.305.03-.635-.223a2.41 2.41 0 00-2.134-.36c-.404.134-.609.123-1.035-.057-1.78-.75-3.786.7-3.747 2.707.006.291.062.662.125.824.08.207.006.457-.247.843-.47.717-.491 1.797-.05 2.552.31.526.31.534.03.93-.438.62-.526 1.402-.243 2.15.134.354.33.717.436.805.136.114.174.45.131 1.153-.05.84-.008 1.082.278 1.577.737 1.273 2.268 1.682 3.19.851.583-.525.757-1.508.348-1.964-.154-.17-.383-.27-.534-.23-.574.151-.944-1.552-.473-2.178.299-.399.263-1.66-.065-2.282-.26-.49-.259-.523.003-1.104.324-.72.348-1.393.07-2.061-.152-.368-.162-.538-.04-.662.123-.123.119-.242-.018-.463-.101-.163-.145-.36-.097-.438.149-.244.986-.154 1.302.14.564.524 1.882.66 2.524.26.076-.047.456.077.846.276.888.453 1.584.455 2.362.007.522-.3.742-.34 1.548-.275 1.065.086 1.868-.196 2.256-.792.126-.194.37-.346.553-.346.18 0 .561-.16.846-.354.376-.257.56-.31.678-.191.245.247.192.617-.132.913-.404.369-.373 1.176.077 1.97.364.641.364.645.116 1.44-.229.73-.23.85-.022 1.418.214.585.21.65-.068 1.143l-.295.523.352.766.352.766.657-.53a9.527 9.527 0 011.354-.887c.607-.312.685-.403.607-.714a.89.89 0 01.145-.692c.337-.486.305-1.832-.062-2.557-.236-.466-.265-.666-.146-1.01.364-1.053.094-2.094-.723-2.787-.328-.278-.445-.504-.447-.865-.012-1.843-2.024-3.217-3.438-2.349zm-86.214.698c-.627.201-1.08.584-3.252 2.75-1.388 1.385-2.523 2.575-2.523 2.646 0 .071.575.67 1.279 1.33.703.66 2.104 2.016 3.114 3.011l1.835 1.811 2.33-2.354c2.79-2.82 3.191-3.455 3.2-5.064.01-1.744-.84-3.116-2.446-3.948-.812-.422-2.518-.51-3.537-.182zm-84.633 1.884c-.384.386-.497.623-.497 1.038 0 1.649 1.847 2.42 2.948 1.232.327-.352.413-.584.413-1.108 0-.556-.079-.741-.496-1.162-.425-.427-.598-.5-1.184-.5-.587 0-.76.073-1.184.5zm7.714-.133c-.305.259-.548.714-.817 1.533l-.384 1.164.467 1.904.467 1.904.698-.067c.627-.061.743-.022 1.143.38.738.744.503 1.977-.471 2.476a6.87 6.87 0 00-.521.285c-.027.024.098.71.279 1.526.288 1.301.306 1.56.143 2.11-.306 1.033-1.054 1.62-2.58 2.023-.715.19-1.352.389-1.414.443-.063.055 1.535.614 3.55 1.244 2.632.822 3.775 1.116 4.059 1.045.69-.171 1.182-.796 1.508-1.911a1159.69 1159.69 0 012.894-9.527c.489-1.591.89-3.064.89-3.274 0-.21-.181-.584-.402-.832-.355-.397-.861-.588-4.31-1.622-2.149-.644-4.101-1.172-4.337-1.172-.243 0-.615.159-.862.368zm-12.534 1.02c-1.075.471-1.422 1.72-.714 2.567.786.942 2.136.888 2.803-.111.57-.853.373-1.717-.53-2.33-.561-.381-.913-.41-1.559-.126zm13.519 1.399c-.64.645-.632 1.5.021 2.11 1.32 1.234 3.117-.69 1.95-2.087-.526-.63-1.359-.64-1.971-.023zm4.598.892c-.968.394-1.245 1.773-.506 2.518.878.884 2.275.313 2.45-1.002.075-.566.037-.668-.433-1.141-.521-.525-.907-.621-1.511-.375zm156.168.394c-.385.126-.989.19-1.457.155-.567-.043-.971.018-1.389.209a2.825 2.825 0 01-2.342.006c-.431-.194-.913-.257-1.84-.24-.69.011-1.33.069-1.424.127-.094.058-.17.37-.17.692A1.43 1.43 0 007.81 9.808c.207.052 1.939.027 3.848-.057 2.79-.122 3.51-.115 3.665.037.16.156.154.229-.036.42-.281.284-1.06.368-4.191.457-2.72.077-3.167.194-3.881 1.014-.775.889-.781 2.438-.013 3.165.874.828 2.967 1.06 4.002.446.431-.257.75-.32 1.506-.302.527.014 1.537.026 2.244.027.966.002 1.396.068 1.73.264.435.258.447.257.723-.085.154-.191.28-.501.28-.688 0-.52-.667-1.222-1.27-1.336-.286-.054-1.844-.01-3.461.099-4.026.269-4.092.268-4.157-.063-.03-.15.01-.336.086-.414.077-.077 1.613-.234 3.412-.349 1.8-.115 3.512-.277 3.806-.36.294-.085.73-.378.97-.653.391-.45.446-.637.543-1.867l.107-1.368-.527-.487c-.577-.533-.85-.569-1.847-.243zm-168.225 1.211c-.633.638-.731 1.186-.346 1.937.692 1.35 2.943.978 3.224-.532.116-.622-.287-1.48-.828-1.762-.759-.396-1.417-.28-2.05.357zm74.085 2.337c-1.439 1.467-2.555 2.735-2.753 3.13-.396.784-.543 2.301-.309 3.174.232.861.976 1.92 1.707 2.427.824.571 2.233.936 3.118.808 1.438-.21 1.995-.613 4.55-3.293 1.324-1.39 2.425-2.58 2.447-2.645.021-.064-.604-.744-1.389-1.51-3.21-3.134-4.72-4.558-4.833-4.558-.066 0-1.208 1.11-2.538 2.467zm-79.137-1.296c-.565.347-.806.768-.806 1.406 0 .639.241 1.06.806 1.407.969.596 2.186.134 2.569-.975.181-.522.177-.65-.038-1.107-.457-.968-1.605-1.3-2.531-.73zm98.985.45c-4.56.969-6.842 3.369-6.636 6.98.037.656.16 1.414.274 1.684l.206.491.895-1.379c.881-1.356 2.75-3.52 3.29-3.812.206-.112.295-.095.357.07.052.134-.288.656-.884 1.36-.88 1.039-3.003 4.037-3.003 4.24 0 .14 1.35.095 2.275-.076.477-.088 1.377-.427 2-.753 1.81-.946 3.092-2.568 3.754-4.75.408-1.345.672-3.856.436-4.143-.234-.284-1.37-.25-2.964.088zm-83.348 1.458c-.587.369-.777.725-.777 1.457 0 1.648 2.25 1.86 2.774.26.128-.39.119-.607-.04-.99-.384-.927-1.172-1.22-1.957-.727zm166.555.888c-2.846.605-4.541 1.75-5.464 3.691-.401.845-.454 1.105-.449 2.21.004.84.08 1.39.232 1.672l.226.422.843-1.211c1.185-1.705 2.783-3.368 3.015-3.138.138.137-.063.476-.918 1.546-1.205 1.509-2.308 3.109-2.308 3.35 0 .197.544.196 1.754-.001 2.468-.404 4.357-2.128 5.275-4.818.34-.996.641-3.116.515-3.624-.087-.348-.16-.383-.787-.374-.38.006-1.25.13-1.934.275zm-175.679.673c-.211.115-.5.457-.643.761-.232.494-.238.614-.055 1.142.46 1.33 1.932 1.643 2.871.61.677-.743.669-1.538-.022-2.234-.416-.42-.601-.5-1.133-.495-.349.003-.808.1-1.018.216zm-4.903 1.122c-1.469.417-1.636 2.483-.255 3.144.766.366 1.475.219 2.07-.43 1.18-1.288-.099-3.201-1.815-2.714zm75.76 1.326c-.428.241-.335 1.296.175 2.006.551.766.716.86 1.002.573.214-.216.208-.264-.069-.57-.454-.502-.63-.922-.63-1.494 0-.59-.119-.717-.479-.515zm95.469.358c-.508.16-.77.17-1.153.044-.672-.221-1.857-.058-2.425.334-.782.54-1.153 1.228-1.218 2.258-.04.65.01 1.05.177 1.375.13.251.235.716.235 1.034 0 .836.446 1.352 1.169 1.352.683 0 1.169-.52 1.169-1.253 0-.263.097-.559.215-.658.119-.1.258-.408.31-.686.13-.702.733-1.027 1.326-.715.42.221 1.443.293 1.864.13.16-.061.23-.28.23-.704 0-.338.088-.953.194-1.366l.194-.752-.523-.224c-.852-.365-1.074-.387-1.764-.17zm-158.951.406c-.445.412-.529.586-.529 1.1 0 1.532 1.429 2.137 2.467 1.046.339-.356.423-.577.423-1.11 0-.565-.072-.73-.478-1.095-.649-.585-1.204-.567-1.883.06z" fill="#CAA6BD"/></g><defs><clipPath id="clip0_4_2132"><path fill="#fff" d="M0 0h29.122v22.389H0z"/></clipPath></defs></svg>