<svg width="31" height="27" fill="none" xmlns="http://www.w3.org/2000/svg"><g clip-path="url(#clip0_4_2099)"><path fill-rule="evenodd" clip-rule="evenodd" d="M-60.914-35.92c-1.35 1.22-2.436 2.269-2.412 2.331.025.062 1.264 1.384 2.754 2.938l2.709 2.825 2.515-2.228c1.384-1.225 2.516-2.322 2.516-2.436 0-.28-5.076-5.574-5.384-5.615-.136-.018-1.326.946-2.698 2.185zm151.812-1.743c-1.03.507-2.1 1.492-2.443 2.251-.132.292-.24.355-.472.278-.752-.25-2.405-.243-3.171.013-1.06.355-2.18 1.486-2.533 2.558-.866 2.628.788 5.33 3.49 5.703l.671.093v2.41c0 1.662.05 2.41.162 2.41.089 0 .533-.096.986-.213 2.365-.608 5.189-.791 8.278-.536 1.63.134 1.566.157 3.033-1.06l.694-.575v-1.3c0-1.244.018-1.315.402-1.618 1.079-.85 2.502-1.673 3.032-1.753.503-.076.625-.17.87-.677.424-.873.378-2.286-.105-3.246-.468-.93-1.453-1.857-2.335-2.196-.673-.26-2.352-.267-3.112-.014-.244.081-.385-.036-.772-.638-.523-.813-1.216-1.419-2.218-1.94-.518-.27-.953-.354-2.046-.398-1.335-.053-1.427-.035-2.411.448zm-88.014.552c-.294.119-.329.235-.329 1.095v.962l7.71.001c4.24 0 8.155.044 8.702.096.902.086.99.123.95.404l-.044.309-8.586.038c-4.722.02-8.586.066-8.586.1 0 .035.094.515.208 1.067.718 3.464.719 3.498.247 7.268-.62 4.952-.805 7.564-.612 8.614.276 1.507-.302 1.395 7.195 1.395 6.112 0 6.922-.048 6.392-.378-.088-.055-.318-.44-.51-.855-.424-.918-.48-2.606-.121-3.666.298-.883 1.238-1.954 1.91-2.177.608-.202 1.614-.1 2.243.227.421.22.435.216.528-.156.105-.424.049-1.024-.4-4.273l-.307-2.22.447-2.787c.246-1.533.488-3.207.537-3.722.157-1.627.94-1.495-8.828-1.485-4.654.005-8.564.07-8.746.143zm-61.511 1.396c-.215.16-.237.257-.108.468.332.548 1.054.365.87-.22-.124-.395-.432-.495-.762-.248zm-2.578 2.078c-.176.178-.114.6.116.792.293.245.689-.072.628-.502-.043-.305-.538-.497-.744-.29zm66.72.172c-1.061.038-1.206.076-1.206.316 0 .15.102.312.228.36.363.14 10.005-.089 10.097-.24.046-.075.027-.193-.042-.262-.127-.126-6.813-.254-9.077-.174zm10.047.247c0 .364.514.52 1.715.52 1.134 0 1.5-.133 1.5-.545 0-.145-.386-.191-1.608-.191-1.314 0-1.607.04-1.607.216zm-85.424 5.235c-5.339 4.737-5.878 5.176-6.63 5.395-.923.268-2.207 1.246-2.207 1.68 0 .388.37.58 1.114.58.353 0 .376.038.291.466-.127.64.221 1.007.956 1.007h.562v.64c0 .808.32 1.127 1.128 1.127.651 0 .785.158.665.788-.11.579.302.98 1.006.98.555 0 .562.006.562.57 0 .607.298 1.002.615.816 1.032-.606 1.95-1.904 1.839-2.597-.024-.145-1.15-1.386-2.505-2.759s-2.434-2.582-2.4-2.687c.163-.49.648-.104 2.895 2.304 1.323 1.418 2.456 2.58 2.517 2.581.061.002.785-.611 1.608-1.364a651.73 651.73 0 014.611-4.143l3.115-2.776.558.549.558.55.545-.828c.3-.455.67-.894.82-.976.153-.082.276-.203.276-.269 0-.154-6.427-6.79-6.577-6.79-.061 0-2.726 2.32-5.922 5.156zm11.204-4.96c-.224.272.14.77.47.642.349-.135.32-.839-.034-.839a.638.638 0 00-.436.197zm2.47.017c-.265.323-.048.817.36.817.22 0 .38-.11.44-.301.103-.325-.142-.73-.44-.73-.101 0-.263.097-.36.214zm-2.584 2.366c-.097.254.186.66.46.66.28 0 .527-.375.425-.644-.115-.302-.772-.314-.885-.017zm-6.592.178c-.1.036-.182.143-.182.239 0 .095.942 1.121 2.093 2.28 1.832 1.842 2.117 2.076 2.285 1.873.165-.2-.062-.494-1.688-2.181-2.077-2.156-2.244-2.303-2.508-2.21zm78.832 1.156c-1.995.368-4.045 1.402-5.045 2.543-.188.215-.537.812-.775 1.326-.537 1.163-.61 2.51-.195 3.67.271.76.27.768-.029 1.099a3.794 3.794 0 00-.473.668c-.142.278-.13.349.076.428.304.118.526-.168.787-1.012.32-1.033 2.024-3.478 3.469-4.975 1.003-1.039 1.39-1.353 1.513-1.23.123.125-.106.482-.895 1.397-1.347 1.563-3.417 4.685-3.23 4.874.22.22 2.153-.147 3.072-.583 1.112-.528 2.343-1.795 2.905-2.988.583-1.239.797-2.406.74-4.05-.053-1.554 0-1.522-1.92-1.167zm95.686 1.224c-.248.152-.643.505-.877.785a6.16 6.16 0 01-.895.85c-.518.378-.506.449.228 1.298l.42.486 1.298-.747c1.941-1.115 2.322-1.706 1.653-2.562-.372-.476-1.154-.524-1.827-.11zm-4.656 1.664c-.156.09-1.011.73-1.9 1.421-.889.691-2.57 1.983-3.736 2.87-3.64 2.775-3.6 2.686-2.082 4.546 1.974 2.42 1.781 2.397 4.171.515.74-.583 2.48-1.919 3.867-2.968l2.522-1.908-.092-.494c-.063-.34-.01-.647.171-.986.311-.581.29-.626-1.03-2.194-.86-1.021-1.241-1.183-1.891-.802zM23.38-24.594c-1.018.396-1.804 1.097-2.204 1.967l-.34.74.773.817c.425.449.804.912.843 1.029.055.166.178.13.573-.175.64-.492 1.192-.708 2.11-.827l.73-.095.18-.732c.24-.985.03-1.742-.689-2.465-.63-.636-.91-.672-1.976-.259zm.236 1.628c-.547 1.078-.575 1.35-.13 1.287.225-.033.446-.293.728-.858.479-.96.515-1.325.133-1.325-.19 0-.417.279-.73.896zm-6.42 1.386c-1.62 1.374-1.19 5.021.704 5.976 1.506.759 1.952.427 1.443-1.073-.259-.762-.649-1.714-1.536-3.75-.042-.095.064-.248.234-.34.291-.157.352-.076 1.018 1.351.866 1.856 1.18 2.77 1.18 3.438 0 .636.355.685 1 .138.603-.51.965-1.51.839-2.313-.233-1.486-1.153-2.666-2.628-3.369-1.106-.527-1.682-.542-2.253-.058zm71.61.227c-2.519.385-2.366.3-2.366 1.31 0 1.029.332 1.545 1.14 1.771.61.17 3.406.201 5.398.059l1.322-.095.064-.889c.06-.85.096-.919.815-1.585.571-.53.697-.717.525-.784-.512-.197-5.142-.054-6.897.213zm-64.178 1.346c-.542.156-1.28.615-1.574.979-.11.136-.148.43-.096.756.047.294.008.82-.086 1.171-.161.605-.15.66.23 1.06 1.836 1.93 5.32.165 5.32-2.695 0-.603-.438-1.086-1.181-1.3-.62-.18-1.943-.165-2.613.029zm1.508 1.57c-1.136.682-1.515 1.027-1.415 1.29.136.357.526.227 1.619-.542.694-.488 1.06-.843 1.06-1.03 0-.392-.227-.342-1.264.281zm68.415 1.7c-.723.427-1.398.937-1.5 1.133-.476.924.492 1.995 1.466 1.622.335-.129 2.446-2.122 2.446-2.31 0-.143-.891-1.239-1-1.229-.053.005-.688.358-1.412.785zM-75.192 2.94c-.235.237-.292.49-.292 1.307 0 .66.067 1.07.193 1.174.129.108 1.842.175 5.193.203 4.316.035 5.02.01 5.139-.18.076-.122.14-.669.141-1.215.004-1.666.282-1.584-5.332-1.584-4.555 0-4.761.013-5.042.295zm90.202.818c-.258.182-.325.373-.325.928 0 .384.079.778.175.875.104.104.63.181 1.28.187 1.823.017 1.827-.01-.3 2.032l-1.897 1.821-.835-.446c-1.259-.672-2.413-.96-3.84-.954-3.455.012-6.348 2.093-7.453 5.359-.377 1.115-.442 2.89-.15 4.106.437 1.818 1.68 3.573 3.293 4.652 3.156 2.112 7.639 1.563 10.192-1.25a7.822 7.822 0 001.857-6.818c-.09-.43-.431-1.306-.76-1.949l-.6-1.168 1.806-1.74c.993-.957 1.861-1.74 1.93-1.74.069 0 .125.552.125 1.228 0 1.004.049 1.274.267 1.473.375.342 1.27.314 1.633-.05.273-.276.292-.492.292-3.306 0-2.944-.007-3.016-.325-3.24-.267-.188-.833-.229-3.183-.229-2.35 0-2.915.04-3.182.23zm81.953.622c-2.61 2.034-4.385 3.477-4.385 3.562 0 .102 1.8.889 2.035.889.192 0 3.187-4.814 3.06-4.92-.029-.024-.349.187-.71.469zm0 2.094c-.818 1.39-1.465 2.545-1.438 2.565.027.02.772.118 1.657.218.884.1 1.89.22 2.236.266l.63.086-.103-.426c-.284-1.183-1.37-5.108-1.428-5.168-.038-.038-.737 1.069-1.554 2.46zm2.385-2.135c.042.162.39 1.412.771 2.778l.693 2.483 1.033-.103c.568-.056 1.11-.146 1.204-.2.11-.064-.421-.903-1.506-2.38-.922-1.256-1.81-2.416-1.975-2.578l-.298-.295.078.295zM-74.508 6.423c-.054.055-.1.276-.1.49 0 .344-.095.421-.791.643-.911.289-1.59.963-1.84 1.824-.11.377-.147 2.59-.117 6.914.044 6.148.055 6.372.346 6.774.166.228.59.564.944.747.629.323.755.33 5.433.33 4.097 0 4.875-.034 5.387-.24.505-.204.584-.292.503-.553-.053-.17-.132-.656-.176-1.077-.067-.658-.02-.868.331-1.47a9.578 9.578 0 011.052-1.396l.642-.692-.047-4.686c-.042-4.125-.079-4.741-.304-5.156-.329-.607-1.042-1.145-1.827-1.379-.424-.126-.626-.27-.639-.456-.01-.15-.026-.354-.037-.455-.013-.142-1.012-.193-4.339-.223-2.377-.022-4.366.006-4.42.061zM92.14 10.588c0 1.126-.038 2.148-.085 2.27-.056.148.063.3.352.451.37.193.51.448.919 1.667.264.791.498 1.34.52 1.218.043-.245.632-6.303.632-6.507 0-.07-.148-.186-.329-.258-.18-.072-.707-.301-1.169-.51l-.84-.38v2.049zm2.783 1.446a293.225 293.225 0 01-.37 4.296l-.19 1.978.639 1.815c.351.998.772 2.092.934 2.43.163.34.296.704.296.81 0 .14.259.194.926.194h.926l2.325-2.511c1.28-1.381 2.347-2.57 2.372-2.641.055-.16-1.128-2.359-1.27-2.359-.056 0-.318.448-.583.995-.87 1.799-2.486 4.686-2.764 4.94-.303.277-1.64.727-1.64.552 0-.06.148-.319.329-.573.18-.254.654-.928 1.05-1.497l.723-1.036.777-4.511c.427-2.482.754-4.536.725-4.565-.057-.057-4.41-.636-4.789-.637-.199 0-.263.361-.416 2.32zm6.75-1.87c-.837.167-.856.185-.965.908-.052.347-.315 1.906-.584 3.465-.27 1.56-.45 2.834-.4 2.833.048-.001.384-.574.746-1.273.568-1.097.739-1.307 1.256-1.54l.598-.27.402-1.847c.221-1.015.437-1.977.479-2.138.065-.252.006-.291-.416-.277a8.473 8.473 0 00-1.116.14zm-94.05.576c-1.577.508-2.657 1.454-3.366 2.95-.397.836-.455 1.116-.457 2.21-.003 1.601.47 2.735 1.587 3.795 2.33 2.213 5.78 2.145 8.012-.158 1.742-1.797 1.917-4.757.405-6.86-1.312-1.825-3.956-2.653-6.18-1.937zm-83.09.205c-.12.146-.157 1.532-.129 4.898l.039 4.695 5.035.12c3.456.083 5.142.072 5.373-.034l.337-.155-.038-4.825-.039-4.825-5.205-.039c-4.286-.032-5.235-.003-5.373.165zm162.95 3.573c-.34 1.427-.587 2.626-.548 2.665.038.038.53-.036 1.095-.165.564-.13 1.209-.235 1.432-.235.32 0 .637-.247 1.468-1.142.583-.627 1.061-1.176 1.062-1.22.001-.043-.212-.203-.473-.356a68.956 68.956 0 01-1.894-1.21c-.78-.513-1.442-.932-1.47-.932-.03 0-.33 1.168-.671 2.595zm-156.375-1.776c-1.747.48-2.85 1.232-3.4 2.32-.376.742-.407 2.15-.059 2.685.217.333.218.4.015.692-.298.428-.284.553.062.553.158 0 .357-.133.443-.295.114-.213.307-.295.7-.296.787-.002 1.94-.6 2.555-1.324.716-.844 1.038-1.861 1.048-3.313.01-1.365-.023-1.39-1.364-1.022zm172.796 1.917c-.804.37-1.543.708-1.644.751-.249.108-.257.084.41 1.273.326.582.645 1.156.709 1.278.082.157.524.26 1.528.353.777.073 1.438.107 1.468.074.12-.13-.708-4.403-.853-4.403-.086 0-.814.304-1.618.674zm-81.254.145c-.241.126-.72.505-1.062.842l-.623.613 1.002.961c.55.53 1.143 1.152 1.316 1.385l.314.424.503-.387c1.192-.916 1.577-2.228.933-3.182-.588-.872-1.492-1.12-2.383-.656zM91.417 16c-.528.58-.863 1.07-.816 1.192.086.226 3.08 4.746 3.776 5.702l.43.59-.103-.59c-.056-.324-.454-1.749-.884-3.166a414.36 414.36 0 01-1.091-3.645c-.17-.587-.334-1.067-.363-1.067-.03 0-.457.443-.95.984zm-162.064-.315c-.48.55-1.398 2.256-1.279 2.376.104.105 2.131-2.649 2.049-2.783-.132-.214-.314-.117-.77.407zm11.75-.021c-.356.158-2.411 2.41-2.411 2.643 0 .035.544.526 1.21 1.091l1.21 1.027.653-.154c.53-.124.772-.302 1.282-.939.347-.432.7-.988.785-1.235.559-1.614-1.148-3.136-2.73-2.433zm79.082 1.449c-.2.183-.633.651-.96 1.04-.494.59-.594.816-.594 1.343 0 1.388 1.527 2.282 2.782 1.628.236-.123.468-.38.515-.571.048-.191.308-.564.579-.828l.491-.48-.358-.475c-.198-.26-.749-.815-1.224-1.232l-.866-.758-.365.333zm68.119.368c-.623.028-1.133.113-1.133.19 0 .113 1.193 1.64 4.321 5.527.159.198 2.401.482 2.401.304 0-.052-.895-1.453-1.99-3.113-1.352-2.05-2.065-3.008-2.228-2.988-.131.017-.748.053-1.371.08zm12.909 3.632c-1.132 1.248-2.058 2.317-2.058 2.375 0 .059.537.06 1.194.002l1.194-.105 2.25-2.16 2.251-2.16-.705-.097a14.14 14.14 0 00-1.386-.11l-.681-.014-2.059 2.27zM-62.66 19.986c-1.021 1.267-1.133 1.494-1.133 2.298 0 1.635 1.849 2.373 3.382 1.35.517-.344.564-.432.564-1.044 0-.367.103-.868.228-1.112.126-.245.208-.501.183-.57-.057-.157-2.193-1.916-2.327-1.916-.053 0-.457.447-.897.994zm85.946-.256c-.348.186-.64.505-.84.924-.375.779-.387 1.155-.052 1.559l.256.308.803-.51c.442-.28.921-.51 1.064-.512.142-.002.675-.269 1.185-.593.509-.324 1.017-.587 1.128-.584.278.006-.193.363-1.088.826-.39.201-1.048.643-1.464.983-.416.338-.917.722-1.114.851l-.358.236.36.197c.538.293 1.566.413 2.244.262.69-.155 1.928-1.276 2.518-2.279.423-.72.363-1.227-.2-1.672-.322-.256-.588-.292-2.139-.286-1.457.005-1.864.057-2.303.29zm-81.348 1.048c-.607.176-1.053.887-1.054 1.678 0 .688.281 1.159.878 1.47.615.32 3.5.306 4.184-.02 1.243-.595 1.227-2.558-.025-3.085-.57-.24-3.207-.269-3.983-.043zm-10.7 21.412c-.763.195-3.032.752-5.041 1.239-3.365.815-3.686.92-4.056 1.332-.3.334-.402.6-.402 1.047 0 .33.795 3.724 1.766 7.545 1.57 6.173 1.811 6.993 2.174 7.367.718.74 1.137.696 6.582-.7 4.533-1.164 4.926-1.29 5.295-1.702.22-.246.442-.62.495-.832.103-.413-3.16-13.918-3.544-14.673-.48-.941-1.36-1.109-3.269-.623zm169.737.05c-.463.284-1.236 1.127-1.236 1.347 0 .07-.321.126-.714.123-.74-.006-1.194.16-1.702.625-.271.248-.353.254-.97.067-.691-.21-1.605-.117-1.914.194-.1.102-.304.03-.634-.223a2.41 2.41 0 00-2.134-.36c-.404.134-.61.123-1.036-.057-1.78-.75-3.785.7-3.746 2.706.006.292.062.663.124.825.08.207.007.457-.246.843-.47.716-.492 1.797-.05 2.552.309.526.31.534.03.93-.438.619-.527 1.402-.243 2.15.134.354.33.716.436.805.136.113.174.45.131 1.153-.051.84-.008 1.082.278 1.577.736 1.273 2.268 1.681 3.19.85.583-.524.757-1.507.347-1.963-.153-.171-.383-.27-.534-.23-.573.15-.943-1.552-.473-2.179.3-.398.263-1.66-.065-2.28-.258-.49-.258-.524.003-1.105.325-.72.348-1.394.072-2.061-.153-.368-.163-.538-.04-.662.122-.123.117-.242-.02-.463-.1-.163-.144-.36-.097-.438.15-.244.987-.154 1.302.139.565.525 1.883.661 2.525.262.076-.048.456.076.845.275.889.453 1.585.455 2.363.007.521-.3.742-.34 1.547-.275 1.065.086 1.869-.196 2.257-.792.125-.194.37-.346.553-.346.18 0 .561-.16.845-.354.377-.258.561-.31.678-.191.246.247.193.617-.131.913-.405.369-.373 1.176.076 1.969.365.642.365.646.116 1.441-.228.73-.23.85-.021 1.418.214.585.21.65-.068 1.143l-.295.523.352.766.351.766.658-.53a9.583 9.583 0 011.354-.888c.607-.31.684-.402.607-.713a.892.892 0 01.144-.692c.338-.486.305-1.832-.061-2.557-.236-.467-.265-.666-.146-1.01.364-1.053.094-2.094-.724-2.787-.327-.278-.444-.504-.447-.865-.012-1.843-2.023-3.218-3.437-2.349zm-86.214.698c-.627.201-1.08.584-3.252 2.75-1.388 1.385-2.524 2.575-2.524 2.646 0 .071.576.67 1.28 1.33.703.66 2.104 2.016 3.114 3.011l1.835 1.81 2.33-2.353c2.79-2.82 3.191-3.456 3.2-5.065.01-1.743-.84-3.115-2.446-3.948-.813-.42-2.518-.508-3.537-.181zm-84.633 1.884c-.384.386-.497.623-.497 1.038 0 1.649 1.846 2.42 2.948 1.232.326-.352.413-.584.413-1.108 0-.556-.08-.741-.497-1.162-.424-.428-.597-.501-1.184-.501-.586 0-.76.073-1.183.5zm7.714-.133c-.306.259-.548.714-.818 1.532l-.383 1.165.467 1.904.467 1.904.698-.068c.626-.06.743-.021 1.143.382.737.743.503 1.976-.471 2.475-.26.133-.495.262-.522.285-.027.024.1.71.28 1.526.288 1.3.306 1.56.142 2.11-.305 1.033-1.053 1.62-2.58 2.023-.715.189-1.351.389-1.414.443-.062.055 1.535.614 3.55 1.244 2.632.821 3.776 1.116 4.06 1.045.69-.171 1.182-.796 1.508-1.911.375-1.285 1.712-5.687 2.893-9.527.49-1.591.89-3.064.89-3.274 0-.21-.18-.584-.402-.832-.354-.398-.86-.588-4.31-1.622-2.149-.645-4.1-1.172-4.336-1.172-.244 0-.615.159-.862.368zm-12.535 1.02c-1.074.471-1.421 1.72-.713 2.567.786.942 2.136.888 2.803-.111.57-.853.373-1.717-.53-2.33-.562-.381-.914-.41-1.56-.127zm13.52 1.399c-.64.645-.632 1.5.02 2.11 1.32 1.234 3.118-.69 1.95-2.088-.526-.63-1.358-.64-1.97-.022zm4.598.892c-.968.394-1.245 1.773-.507 2.517.878.885 2.276.314 2.45-1 .076-.567.037-.67-.432-1.142-.521-.525-.907-.621-1.511-.375zm156.168.394c-.385.126-.99.19-1.458.154-.567-.042-.97.019-1.388.21a2.825 2.825 0 01-2.342.006c-.431-.194-.913-.257-1.84-.241-.69.012-1.331.07-1.424.128-.094.058-.17.37-.17.692a1.43 1.43 0 001.082 1.394c.207.052 1.94.026 3.85-.057 2.79-.123 3.509-.115 3.664.037.16.156.154.229-.036.42-.282.283-1.061.368-4.192.457-2.719.077-3.166.194-3.88 1.014-.776.889-.782 2.438-.013 3.165.874.828 2.967 1.06 4.001.445.432-.256.75-.32 1.506-.3.528.013 1.538.025 2.245.026.965.002 1.396.068 1.729.264.436.258.447.257.724-.085.154-.192.28-.501.28-.689 0-.519-.668-1.221-1.27-1.335-.287-.054-1.844-.01-3.462.098-4.026.27-4.092.269-4.156-.062-.03-.15.01-.337.086-.414.077-.077 1.612-.235 3.412-.35 1.799-.114 3.512-.276 3.806-.36.294-.084.73-.377.97-.652.391-.45.446-.638.542-1.868l.108-1.367-.527-.487c-.577-.533-.85-.569-1.847-.243zm-168.226 1.211c-.633.638-.73 1.186-.345 1.937.692 1.35 2.943.978 3.224-.532.116-.622-.287-1.48-.828-1.762-.76-.396-1.417-.281-2.05.357zm74.085 2.337c-1.438 1.467-2.554 2.735-2.752 3.13-.396.784-.544 2.301-.309 3.174.231.86.976 1.92 1.706 2.426.824.572 2.234.937 3.118.808 1.438-.209 1.996-.612 4.55-3.292 1.325-1.39 2.426-2.58 2.447-2.645.022-.065-.603-.744-1.388-1.51-3.21-3.134-4.72-4.558-4.834-4.558-.065 0-1.207 1.11-2.538 2.467zm-79.136-1.296c-.565.347-.806.768-.806 1.406 0 .639.241 1.06.805 1.407.97.595 2.186.134 2.57-.975.18-.523.176-.65-.039-1.107-.456-.969-1.604-1.3-2.53-.731zm98.985.45c-4.561.969-6.842 3.369-6.636 6.98.037.656.16 1.413.273 1.684l.206.49.896-1.378c.881-1.356 2.749-3.521 3.289-3.812.207-.112.296-.095.358.07.051.134-.289.656-.884 1.36-.88 1.039-3.003 4.037-3.003 4.24 0 .14 1.35.095 2.275-.076.477-.088 1.377-.427 2-.753 1.81-.946 3.091-2.568 3.753-4.75.409-1.346.673-3.856.437-4.143-.234-.284-1.37-.25-2.964.088zm-83.348 1.458c-.587.369-.777.725-.777 1.457 0 1.648 2.25 1.86 2.773.26.129-.39.12-.607-.04-.991-.384-.926-1.172-1.218-1.956-.726zm166.555.888c-2.847.605-4.542 1.75-5.464 3.691-.402.844-.454 1.104-.449 2.209.003.84.08 1.39.232 1.673l.226.422.842-1.211c1.186-1.705 2.783-3.368 3.015-3.138.139.137-.062.476-.917 1.546-1.206 1.508-2.308 3.109-2.308 3.35 0 .197.544.196 1.754-.002 2.468-.403 4.357-2.127 5.275-4.817.34-.996.641-3.116.514-3.624-.086-.348-.16-.383-.787-.374-.38.006-1.25.13-1.933.275zm-175.68.672c-.21.116-.499.458-.642.762-.232.494-.238.614-.056 1.142.46 1.33 1.933 1.643 2.871.61.677-.743.67-1.538-.021-2.234-.416-.42-.6-.5-1.133-.495-.35.003-.808.1-1.018.215zm-4.902 1.123c-1.47.417-1.637 2.483-.255 3.144.766.366 1.474.219 2.07-.43 1.18-1.288-.1-3.202-1.815-2.715zm75.759 1.326c-.427.241-.335 1.295.176 2.006.55.766.716.86 1.002.572.214-.215.208-.263-.069-.57-.454-.501-.631-.92-.631-1.493 0-.59-.118-.718-.478-.515zm95.47.358c-.508.16-.77.17-1.153.044-.673-.221-1.858-.058-2.425.334-.782.54-1.153 1.228-1.218 2.258-.041.649.01 1.05.177 1.374.129.252.234.717.234 1.034 0 .837.447 1.353 1.17 1.353.683 0 1.169-.52 1.169-1.253 0-.263.097-.559.215-.658.118-.1.258-.408.31-.686.13-.702.733-1.027 1.326-.715.42.221 1.443.293 1.863.13.16-.062.231-.28.231-.704 0-.338.088-.953.194-1.366l.193-.752-.522-.224c-.853-.365-1.074-.387-1.764-.17zm-158.951.406c-.445.411-.53.586-.53 1.1 0 1.532 1.43 2.137 2.468 1.045.338-.355.422-.576.422-1.11 0-.564-.071-.729-.477-1.094-.65-.585-1.205-.567-1.883.06z" fill="#7EC1BC"/></g><defs><clipPath id="clip0_4_2099"><path fill="#fff" d="M0 0h30.162v26.237H0z"/></clipPath></defs></svg>